<svg xmlns="http://www.w3.org/2000/svg" xmlns:xlink="http://www.w3.org/1999/xlink" width="864" zoomAndPan="magnify" viewBox="0 0 648 647.999998" height="864" preserveAspectRatio="xMidYMid meet" version="1.0"><defs><g/><clipPath id="9754068065"><path d="M 203.308594 524 L 444.808594 524 L 444.808594 554.1875 L 203.308594 554.1875 Z M 203.308594 524 " clip-rule="nonzero"/></clipPath><clipPath id="c082c13bdb"><path d="M 212 213.6875 L 436 213.6875 L 436 540 L 212 540 Z M 212 213.6875 " clip-rule="nonzero"/></clipPath></defs><g clip-path="url(#9754068065)"><path fill="#ffffff" d="M 343.597656 524.632812 C 335.488281 536.363281 330.257812 543.539062 330.140625 543.707031 C 328.707031 545.664062 326.425781 546.824219 324 546.824219 C 321.570312 546.824219 319.289062 545.664062 317.859375 543.707031 C 317.738281 543.539062 312.507812 536.363281 304.398438 524.632812 C 247.0625 525.777344 203.304688 531.875 203.304688 539.222656 C 203.304688 547.386719 257.339844 554.007812 324 554.007812 C 390.65625 554.007812 444.695312 547.386719 444.695312 539.222656 C 444.695312 531.875 400.933594 525.777344 343.597656 524.632812 " fill-opacity="1" fill-rule="nonzero"/></g><g clip-path="url(#c082c13bdb)"><path fill="#ffffff" d="M 324 407.089844 C 278.808594 407.089844 242.175781 370.457031 242.175781 325.265625 C 242.175781 280.078125 278.808594 243.441406 324 243.441406 C 369.1875 243.441406 405.824219 280.078125 405.824219 325.265625 C 405.824219 370.457031 369.1875 407.089844 324 407.089844 Z M 324 213.9375 C 262.511719 213.9375 212.667969 263.78125 212.667969 325.265625 C 212.667969 386.753906 324 539.222656 324 539.222656 C 324 539.222656 435.328125 386.753906 435.328125 325.265625 C 435.328125 263.78125 385.484375 213.9375 324 213.9375 " fill-opacity="1" fill-rule="nonzero"/></g><path fill="#ffffff" d="M 338.652344 298.832031 C 335.550781 298.832031 333.117188 297.136719 333.210938 295.09375 C 333.304688 293.097656 335.789062 291.511719 338.761719 291.511719 C 341.734375 291.511719 344.171875 293.097656 344.207031 295.09375 C 344.242188 297.136719 341.757812 298.832031 338.652344 298.832031 Z M 330.664062 315.90625 C 330.515625 318.636719 327.390625 320.910156 323.6875 320.910156 C 319.980469 320.910156 317.257812 318.636719 317.59375 315.90625 C 317.917969 313.25 321.03125 311.148438 324.550781 311.148438 C 328.074219 311.148438 330.8125 313.25 330.664062 315.90625 Z M 312.203125 299.4375 C 311.929688 301.085938 309.734375 302.445312 307.300781 302.445312 C 304.867188 302.445312 303.1875 301.085938 303.542969 299.4375 C 303.886719 297.820312 306.070312 296.53125 308.421875 296.53125 C 310.773438 296.53125 312.46875 297.820312 312.203125 299.4375 Z M 306.007812 318.21875 C 305.480469 321.117188 301.890625 323.53125 298.003906 323.53125 C 294.117188 323.53125 291.570312 321.117188 292.300781 318.21875 C 293.007812 315.398438 296.554688 313.175781 300.242188 313.175781 C 303.929688 313.175781 306.515625 315.398438 306.007812 318.21875 Z M 295.050781 341.484375 C 294.726562 343.007812 292.996094 344.253906 291.1875 344.253906 C 289.375 344.253906 288.210938 343.007812 288.578125 341.484375 C 288.941406 339.984375 290.660156 338.785156 292.425781 338.785156 C 294.191406 338.785156 295.367188 339.984375 295.050781 341.484375 Z M 354.296875 312.910156 C 354.214844 311.742188 355.433594 310.804688 357.015625 310.804688 C 358.597656 310.804688 359.972656 311.742188 360.089844 312.910156 C 360.144531 313.445312 359.921875 313.933594 359.515625 314.3125 L 368.394531 310.355469 C 353.121094 295.207031 332.335938 285.625 309.347656 282.710938 C 310.566406 283.226562 311.277344 284.148438 311.078125 285.207031 C 310.765625 286.882812 308.320312 288.273438 305.621094 288.273438 C 302.925781 288.273438 301.078125 286.882812 301.488281 285.207031 C 301.839844 283.777344 303.722656 282.605469 305.914062 282.320312 C 302.640625 282 299.285156 281.804688 295.851562 281.734375 L 275.816406 351.601562 L 357.921875 315.023438 C 355.992188 315.296875 354.382812 314.152344 354.296875 312.910156 " fill-opacity="1" fill-rule="nonzero"/><path fill="#ffffff" d="M 373.75 307.96875 L 388.167969 301.546875 C 389.832031 300.804688 390.117188 298.558594 388.691406 297.425781 C 365.390625 278.957031 335.378906 268.519531 303.136719 267.453125 C 301.277344 267.390625 299.617188 268.609375 299.105469 270.394531 L 296.8125 278.375 C 319.117188 278.785156 340.058594 284.433594 357.621094 295.441406 C 363.441406 299.09375 368.835938 303.273438 373.75 307.96875 " fill-opacity="1" fill-rule="nonzero"/><path fill="#ffffff" d="M 391.765625 305.125 C 391.765625 303.996094 390.601562 303.242188 389.570312 303.703125 L 275.816406 354.382812 C 275.863281 354.878906 275.609375 356.058594 276.421875 357.378906 C 276.34375 357.410156 276.269531 357.4375 276.195312 357.46875 C 276.398438 359.167969 279.707031 360.519531 282.8125 359.71875 C 286.238281 358.835938 287.878906 355.71875 289.734375 355.863281 C 292.433594 356.078125 292.757812 363.007812 290.738281 369.667969 C 288.058594 378.488281 282.011719 384.273438 283.101562 385.753906 C 283.898438 386.835938 288.242188 385.207031 291.316406 381.832031 C 298.742188 373.679688 291.433594 361.980469 304.332031 349.296875 L 310.332031 346.734375 C 310.695312 349.070312 307.144531 356.234375 308.621094 362.921875 C 309.386719 366.394531 311.273438 368.589844 312.050781 368.023438 C 313.132812 367.226562 311.125 361.601562 313.828125 352.40625 C 314.589844 349.8125 315.589844 346.421875 317.683594 343.59375 L 327.953125 339.210938 C 329.886719 341.058594 326.265625 345.648438 327.699219 347.949219 C 328.480469 349.195312 330.445312 349.28125 331.304688 348.292969 C 332.90625 346.457031 329.28125 342.386719 332.160156 337.414062 L 342.734375 332.902344 C 343.523438 333.5625 344.078125 334.542969 344.3125 335.710938 C 345.046875 339.363281 342.207031 342.496094 340.027344 350.605469 C 339.464844 352.699219 336.632812 363.230469 339.722656 364.214844 C 341.085938 364.648438 343.617188 363.226562 344.75 361.300781 C 346.488281 358.34375 343.59375 356.445312 343.59375 349.625 C 343.59375 348.113281 343.59375 339.996094 348.417969 333.59375 C 350.6875 330.589844 353.144531 329.140625 354.371094 328.417969 C 359.355469 325.480469 360.25 328.167969 364.835938 325.636719 C 367.367188 324.234375 368.449219 322.65625 369.835938 321.332031 L 375.621094 318.859375 C 383.304688 318.671875 379.246094 330.453125 380.308594 330.191406 C 381.078125 330 382.214844 323.445312 386.539062 317.210938 C 387.539062 315.765625 390.195312 313.582031 391.019531 311.609375 C 391.492188 310.929688 391.765625 310.109375 391.765625 309.246094 L 391.765625 305.125 " fill-opacity="1" fill-rule="nonzero"/><g fill="#ffffff" fill-opacity="1"><g transform="translate(88.11869, 168.65938)"><g><path d="M 74.875 -55.296875 L 60.8125 0 L 47.46875 0 L 39.96875 -29.046875 C 39.820312 -29.597656 39.617188 -30.441406 39.359375 -31.578125 C 39.109375 -32.710938 38.84375 -33.953125 38.5625 -35.296875 C 38.289062 -36.648438 38.046875 -37.925781 37.828125 -39.125 C 37.617188 -40.320312 37.476562 -41.273438 37.40625 -41.984375 C 37.332031 -41.273438 37.1875 -40.328125 36.96875 -39.140625 C 36.75 -37.953125 36.507812 -36.691406 36.25 -35.359375 C 35.988281 -34.023438 35.726562 -32.773438 35.46875 -31.609375 C 35.21875 -30.453125 35.019531 -29.570312 34.875 -28.96875 L 27.421875 0 L 14.109375 0 L 0 -55.296875 L 11.53125 -55.296875 L 18.609375 -25.109375 C 18.804688 -24.203125 19.035156 -23.117188 19.296875 -21.859375 C 19.566406 -20.597656 19.832031 -19.28125 20.09375 -17.90625 C 20.363281 -16.53125 20.601562 -15.207031 20.8125 -13.9375 C 21.03125 -12.664062 21.191406 -11.5625 21.296875 -10.625 C 21.421875 -11.582031 21.582031 -12.695312 21.78125 -13.96875 C 21.988281 -15.25 22.210938 -16.550781 22.453125 -17.875 C 22.691406 -19.195312 22.9375 -20.425781 23.1875 -21.5625 C 23.4375 -22.695312 23.660156 -23.613281 23.859375 -24.3125 L 31.921875 -55.296875 L 43 -55.296875 L 51.0625 -24.3125 C 51.226562 -23.632812 51.429688 -22.722656 51.671875 -21.578125 C 51.910156 -20.429688 52.15625 -19.1875 52.40625 -17.84375 C 52.664062 -16.507812 52.898438 -15.207031 53.109375 -13.9375 C 53.328125 -12.664062 53.488281 -11.5625 53.59375 -10.625 C 53.769531 -11.882812 54.015625 -13.414062 54.328125 -15.21875 C 54.640625 -17.019531 54.976562 -18.816406 55.34375 -20.609375 C 55.707031 -22.398438 56.03125 -23.898438 56.3125 -25.109375 L 63.34375 -55.296875 Z M 74.875 -55.296875 "/></g></g></g><g fill="#ffffff" fill-opacity="1"><g transform="translate(162.999895, 168.65938)"><g><path d="M 17.578125 -58.84375 L 17.578125 -46.859375 C 17.578125 -44.765625 17.507812 -42.769531 17.375 -40.875 C 17.238281 -38.988281 17.132812 -37.65625 17.0625 -36.875 L 17.65625 -36.875 C 18.5625 -38.332031 19.640625 -39.515625 20.890625 -40.421875 C 22.140625 -41.335938 23.519531 -42.007812 25.03125 -42.4375 C 26.550781 -42.863281 28.179688 -43.078125 29.921875 -43.078125 C 32.960938 -43.078125 35.617188 -42.539062 37.890625 -41.46875 C 40.160156 -40.394531 41.925781 -38.71875 43.1875 -36.4375 C 44.445312 -34.15625 45.078125 -31.195312 45.078125 -27.5625 L 45.078125 0 L 33.546875 0 L 33.546875 -24.703125 C 33.546875 -27.722656 32.988281 -30 31.875 -31.53125 C 30.769531 -33.070312 29.054688 -33.84375 26.734375 -33.84375 C 24.421875 -33.84375 22.59375 -33.304688 21.25 -32.234375 C 19.914062 -31.171875 18.96875 -29.597656 18.40625 -27.515625 C 17.851562 -25.429688 17.578125 -22.890625 17.578125 -19.890625 L 17.578125 0 L 6.046875 0 L 6.046875 -58.84375 Z M 17.578125 -58.84375 "/></g></g></g><g fill="#ffffff" fill-opacity="1"><g transform="translate(213.903986, 168.65938)"><g><path d="M 23.375 -43.15625 C 29.039062 -43.15625 33.382812 -41.914062 36.40625 -39.4375 C 39.4375 -36.96875 40.953125 -33.210938 40.953125 -28.171875 L 40.953125 0 L 32.90625 0 L 30.671875 -5.75 L 30.375 -5.75 C 29.15625 -4.238281 27.914062 -3.003906 26.65625 -2.046875 C 25.394531 -1.085938 23.945312 -0.382812 22.3125 0.0625 C 20.675781 0.519531 18.6875 0.75 16.34375 0.75 C 13.84375 0.75 11.601562 0.269531 9.625 -0.6875 C 7.644531 -1.644531 6.085938 -3.113281 4.953125 -5.09375 C 3.816406 -7.070312 3.25 -9.582031 3.25 -12.625 C 3.25 -17.113281 4.820312 -20.421875 7.96875 -22.546875 C 11.125 -24.679688 15.851562 -25.863281 22.15625 -26.09375 L 29.5 -26.328125 L 29.5 -28.171875 C 29.5 -30.390625 28.914062 -32.015625 27.75 -33.046875 C 26.59375 -34.085938 24.984375 -34.609375 22.921875 -34.609375 C 20.878906 -34.609375 18.875 -34.316406 16.90625 -33.734375 C 14.9375 -33.148438 12.96875 -32.421875 11 -31.546875 L 7.1875 -39.328125 C 9.425781 -40.515625 11.9375 -41.445312 14.71875 -42.125 C 17.507812 -42.8125 20.394531 -43.15625 23.375 -43.15625 Z M 29.5 -19.59375 L 25.03125 -19.4375 C 21.300781 -19.332031 18.710938 -18.660156 17.265625 -17.421875 C 15.816406 -16.191406 15.09375 -14.570312 15.09375 -12.5625 C 15.09375 -10.789062 15.609375 -9.53125 16.640625 -8.78125 C 17.671875 -8.039062 19.019531 -7.671875 20.6875 -7.671875 C 23.15625 -7.671875 25.238281 -8.398438 26.9375 -9.859375 C 28.644531 -11.328125 29.5 -13.410156 29.5 -16.109375 Z M 29.5 -19.59375 "/></g></g></g><g fill="#ffffff" fill-opacity="1"><g transform="translate(260.685837, 168.65938)"><g><path d="M 23.859375 -8.4375 C 25.117188 -8.4375 26.347656 -8.5625 27.546875 -8.8125 C 28.742188 -9.0625 29.9375 -9.375 31.125 -9.75 L 31.125 -1.171875 C 29.882812 -0.617188 28.347656 -0.160156 26.515625 0.203125 C 24.691406 0.566406 22.695312 0.75 20.53125 0.75 C 18.007812 0.75 15.742188 0.34375 13.734375 -0.46875 C 11.734375 -1.289062 10.160156 -2.71875 9.015625 -4.75 C 7.867188 -6.78125 7.296875 -9.609375 7.296875 -13.234375 L 7.296875 -33.625 L 1.78125 -33.625 L 1.78125 -38.5 L 8.125 -42.359375 L 11.453125 -51.28125 L 18.828125 -51.28125 L 18.828125 -42.28125 L 30.671875 -42.28125 L 30.671875 -33.625 L 18.828125 -33.625 L 18.828125 -13.234375 C 18.828125 -11.617188 19.285156 -10.414062 20.203125 -9.625 C 21.128906 -8.832031 22.347656 -8.4375 23.859375 -8.4375 Z M 23.859375 -8.4375 "/></g></g></g><g fill="#ffffff" fill-opacity="1"><g transform="translate(294.30675, 168.65938)"><g><path d="M 30.375 0 L 17.0625 -43.375 L 16.71875 -43.375 C 16.769531 -42.34375 16.847656 -40.785156 16.953125 -38.703125 C 17.066406 -36.628906 17.175781 -34.414062 17.28125 -32.0625 C 17.382812 -29.71875 17.4375 -27.601562 17.4375 -25.71875 L 17.4375 0 L 6.953125 0 L 6.953125 -55.296875 L 22.921875 -55.296875 L 36 -13.015625 L 36.234375 -13.015625 L 50.109375 -55.296875 L 66.0625 -55.296875 L 66.0625 0 L 55.140625 0 L 55.140625 -26.171875 C 55.140625 -27.910156 55.171875 -29.914062 55.234375 -32.1875 C 55.296875 -34.457031 55.375 -36.617188 55.46875 -38.671875 C 55.570312 -40.722656 55.648438 -42.265625 55.703125 -43.296875 L 55.359375 -43.296875 L 41.109375 0 Z M 30.375 0 "/></g></g></g><g fill="#ffffff" fill-opacity="1"><g transform="translate(367.334843, 168.65938)"><g><path d="M 44.859375 -42.28125 L 44.859375 0 L 36 0 L 34.453125 -5.40625 L 33.84375 -5.40625 C 32.9375 -3.96875 31.800781 -2.796875 30.4375 -1.890625 C 29.082031 -0.984375 27.582031 -0.316406 25.9375 0.109375 C 24.300781 0.535156 22.601562 0.75 20.84375 0.75 C 17.8125 0.75 15.171875 0.21875 12.921875 -0.84375 C 10.679688 -1.914062 8.9375 -3.585938 7.6875 -5.859375 C 6.445312 -8.128906 5.828125 -11.082031 5.828125 -14.71875 L 5.828125 -42.28125 L 17.359375 -42.28125 L 17.359375 -17.578125 C 17.359375 -14.554688 17.898438 -12.273438 18.984375 -10.734375 C 20.066406 -9.203125 21.796875 -8.4375 24.171875 -8.4375 C 26.515625 -8.4375 28.351562 -8.96875 29.6875 -10.03125 C 31.019531 -11.101562 31.957031 -12.679688 32.5 -14.765625 C 33.039062 -16.847656 33.3125 -19.390625 33.3125 -22.390625 L 33.3125 -42.28125 Z M 44.859375 -42.28125 "/></g></g></g><g fill="#ffffff" fill-opacity="1"><g transform="translate(418.238934, 168.65938)"><g><path d="M 30.0625 -43.078125 C 34.570312 -43.078125 38.203125 -41.847656 40.953125 -39.390625 C 43.703125 -36.929688 45.078125 -32.988281 45.078125 -27.5625 L 45.078125 0 L 33.546875 0 L 33.546875 -24.703125 C 33.546875 -27.722656 32.992188 -30 31.890625 -31.53125 C 30.796875 -33.070312 29.078125 -33.84375 26.734375 -33.84375 C 23.203125 -33.84375 20.789062 -32.644531 19.5 -30.25 C 18.21875 -27.851562 17.578125 -24.398438 17.578125 -19.890625 L 17.578125 0 L 6.046875 0 L 6.046875 -42.28125 L 14.859375 -42.28125 L 16.40625 -36.875 L 17.0625 -36.875 C 17.96875 -38.332031 19.09375 -39.515625 20.4375 -40.421875 C 21.789062 -41.335938 23.289062 -42.007812 24.9375 -42.4375 C 26.59375 -42.863281 28.300781 -43.078125 30.0625 -43.078125 Z M 30.0625 -43.078125 "/></g></g></g><g fill="#ffffff" fill-opacity="1"><g transform="translate(469.143008, 168.65938)"><g><path d="M 23.21875 0.75 C 19.03125 0.75 15.460938 -0.0078125 12.515625 -1.53125 C 9.566406 -3.050781 7.320312 -5.410156 5.78125 -8.609375 C 4.25 -11.816406 3.484375 -15.914062 3.484375 -20.90625 C 3.484375 -26.082031 4.359375 -30.300781 6.109375 -33.5625 C 7.859375 -36.832031 10.289062 -39.234375 13.40625 -40.765625 C 16.519531 -42.304688 20.128906 -43.078125 24.234375 -43.078125 C 27.160156 -43.078125 29.6875 -42.789062 31.8125 -42.21875 C 33.945312 -41.65625 35.8125 -40.984375 37.40625 -40.203125 L 34 -31.28125 C 32.1875 -32.007812 30.5 -32.601562 28.9375 -33.0625 C 27.375 -33.53125 25.804688 -33.765625 24.234375 -33.765625 C 22.222656 -33.765625 20.546875 -33.289062 19.203125 -32.34375 C 17.867188 -31.40625 16.875 -29.988281 16.21875 -28.09375 C 15.5625 -26.207031 15.234375 -23.835938 15.234375 -20.984375 C 15.234375 -18.191406 15.585938 -15.875 16.296875 -14.03125 C 17.003906 -12.1875 18.023438 -10.816406 19.359375 -9.921875 C 20.703125 -9.023438 22.328125 -8.578125 24.234375 -8.578125 C 26.628906 -8.578125 28.757812 -8.898438 30.625 -9.546875 C 32.5 -10.191406 34.316406 -11.09375 36.078125 -12.25 L 36.078125 -2.375 C 34.316406 -1.269531 32.46875 -0.472656 30.53125 0.015625 C 28.601562 0.503906 26.164062 0.75 23.21875 0.75 Z M 23.21875 0.75 "/></g></g></g><g fill="#ffffff" fill-opacity="1"><g transform="translate(508.966185, 168.65938)"><g><path d="M 17.578125 -58.84375 L 17.578125 -46.859375 C 17.578125 -44.765625 17.507812 -42.769531 17.375 -40.875 C 17.238281 -38.988281 17.132812 -37.65625 17.0625 -36.875 L 17.65625 -36.875 C 18.5625 -38.332031 19.640625 -39.515625 20.890625 -40.421875 C 22.140625 -41.335938 23.519531 -42.007812 25.03125 -42.4375 C 26.550781 -42.863281 28.179688 -43.078125 29.921875 -43.078125 C 32.960938 -43.078125 35.617188 -42.539062 37.890625 -41.46875 C 40.160156 -40.394531 41.925781 -38.71875 43.1875 -36.4375 C 44.445312 -34.15625 45.078125 -31.195312 45.078125 -27.5625 L 45.078125 0 L 33.546875 0 L 33.546875 -24.703125 C 33.546875 -27.722656 32.988281 -30 31.875 -31.53125 C 30.769531 -33.070312 29.054688 -33.84375 26.734375 -33.84375 C 24.421875 -33.84375 22.59375 -33.304688 21.25 -32.234375 C 19.914062 -31.171875 18.96875 -29.597656 18.40625 -27.515625 C 17.851562 -25.429688 17.578125 -22.890625 17.578125 -19.890625 L 17.578125 0 L 6.046875 0 L 6.046875 -58.84375 Z M 17.578125 -58.84375 "/></g></g></g></svg>