<svg xmlns="http://www.w3.org/2000/svg" xmlns:xlink="http://www.w3.org/1999/xlink" width="40" zoomAndPan="magnify" viewBox="0 0 30 30.000001" height="40" preserveAspectRatio="xMidYMid meet" version="1.0"><defs><clipPath id="9b4cd73228"><path d="M 4.320312 1.453125 L 25.367188 1.453125 L 25.367188 27.582031 L 4.320312 27.582031 Z M 4.320312 1.453125 " clip-rule="nonzero"/></clipPath></defs><g clip-path="url(#9b4cd73228)"><path fill="#000000" d="M 5.488281 7.808594 L 24.195312 7.808594 L 22.089844 25.625 C 21.964844 26.71875 20.949219 27.539062 19.726562 27.539062 L 9.957031 27.539062 C 8.734375 27.539062 7.71875 26.71875 7.589844 25.625 Z M 6.007812 3.472656 L 11.550781 3.472656 L 11.550781 2.796875 C 11.550781 2.433594 11.695312 2.105469 11.929688 1.871094 C 12.160156 1.632812 12.484375 1.488281 12.839844 1.488281 L 16.84375 1.488281 C 17.199219 1.488281 17.523438 1.632812 17.753906 1.871094 C 17.988281 2.105469 18.132812 2.433594 18.132812 2.796875 L 18.132812 3.472656 L 23.675781 3.472656 C 24.140625 3.472656 24.5625 3.664062 24.867188 3.976562 C 25.175781 4.285156 25.363281 4.714844 25.363281 5.183594 L 25.363281 6.308594 C 25.363281 6.632812 25.105469 6.898438 24.785156 6.898438 L 4.898438 6.898438 C 4.578125 6.898438 4.320312 6.632812 4.320312 6.308594 L 4.320312 5.183594 C 4.320312 4.714844 4.507812 4.285156 4.816406 3.976562 C 4.828125 3.960938 4.839844 3.949219 4.855469 3.9375 C 5.15625 3.648438 5.5625 3.472656 6.007812 3.472656 Z M 12.707031 3.472656 L 16.976562 3.472656 L 16.976562 2.796875 C 16.976562 2.757812 16.960938 2.726562 16.9375 2.703125 C 16.914062 2.675781 16.878906 2.664062 16.84375 2.664062 L 12.839844 2.664062 C 12.804688 2.664062 12.769531 2.675781 12.746094 2.703125 C 12.722656 2.726562 12.707031 2.757812 12.707031 2.796875 Z M 14.023438 9.898438 C 14.023438 9.40625 14.46875 9.003906 15.015625 9.003906 C 15.566406 9.003906 16.007812 9.40625 16.007812 9.898438 L 16.007812 25.453125 C 16.007812 25.945312 15.566406 26.34375 15.015625 26.34375 C 14.46875 26.34375 14.023438 25.945312 14.023438 25.453125 Z M 9.09375 9.941406 C 9.0625 9.453125 9.484375 9.035156 10.03125 9.007812 C 10.574219 8.984375 11.039062 9.359375 11.066406 9.851562 L 11.984375 25.40625 C 12.011719 25.898438 11.59375 26.316406 11.046875 26.339844 C 10.503906 26.367188 10.039062 25.988281 10.011719 25.496094 Z M 18.96875 9.851562 C 18.996094 9.359375 19.460938 8.984375 20.003906 9.007812 C 20.550781 9.035156 20.96875 9.453125 20.941406 9.941406 L 20.023438 25.496094 C 19.996094 25.988281 19.53125 26.367188 18.984375 26.339844 C 18.441406 26.316406 18.019531 25.898438 18.046875 25.40625 Z M 18.96875 9.851562 " fill-opacity="1" fill-rule="evenodd"/></g></svg>