<svg xmlns="http://www.w3.org/2000/svg" xmlns:xlink="http://www.w3.org/1999/xlink" width="500" zoomAndPan="magnify" viewBox="0 0 375 374.999991" height="500" preserveAspectRatio="xMidYMid meet" version="1.0"><defs><clipPath id="2c7014cbe7"><path d="M 101.8125 69.308594 L 273.5625 69.308594 L 273.5625 305.558594 L 101.8125 305.558594 Z M 101.8125 69.308594 " clip-rule="nonzero"/></clipPath></defs><rect x="-37.5" width="450" fill="#bf3c2c" y="-37.499999" height="449.999989" fill-opacity="1"/><g clip-path="url(#2c7014cbe7)"><path fill="#ee964b" d="M 173.796875 261.582031 C 170.445312 251.804688 164.308594 243.21875 156.140625 236.878906 L 136.070312 221.292969 C 115.457031 205.292969 102.941406 181.023438 101.855469 154.953125 C 101.855469 107.652344 140.199219 69.308594 187.5 69.308594 C 234.800781 69.308594 273.144531 107.652344 273.144531 154.953125 C 272.058594 181.023438 259.542969 205.292969 238.929688 221.292969 L 218.855469 236.878906 C 210.691406 243.21875 204.554688 251.804688 201.203125 261.582031 L 198.839844 268.46875 C 197.179688 273.316406 192.625 276.570312 187.5 276.570312 C 182.375 276.570312 177.820312 273.316406 176.15625 268.46875 Z M 187.5 305.6875 C 168.578125 305.6875 153.242188 303.386719 153.242188 300.550781 C 153.242188 297.710938 168.578125 295.410156 187.5 295.410156 C 206.421875 295.410156 221.757812 297.710938 221.757812 300.550781 C 221.757812 303.386719 206.421875 305.6875 187.5 305.6875 Z M 187.5 221.757812 C 225.339844 221.757812 256.015625 191.082031 256.015625 153.242188 C 256.015625 115.402344 225.339844 84.726562 187.5 84.726562 C 149.660156 84.726562 118.984375 115.402344 118.984375 153.242188 C 118.984375 191.082031 149.660156 221.757812 187.5 221.757812 Z M 175.019531 147.335938 L 178.125 200.96875 C 178.304688 204.164062 174.863281 206.90625 170.972656 207.074219 C 167.085938 207.246094 163.351562 204.8125 163.171875 201.621094 C 163.160156 201.402344 163.160156 201.183594 163.171875 200.96875 L 166.28125 147.335938 C 160.789062 146.117188 158.378906 141.21875 158.378906 135.363281 L 158.378906 107.507812 C 158.378906 106.277344 159.375 105.28125 160.605469 105.28125 C 161.835938 105.28125 162.832031 106.277344 162.832031 107.507812 L 162.832031 130.207031 C 162.832031 130.824219 163.335938 131.328125 163.953125 131.328125 C 164.574219 131.328125 165.074219 130.824219 165.074219 130.207031 L 165.074219 107.507812 C 165.074219 106.277344 166.070312 105.28125 167.300781 105.28125 C 168.53125 105.28125 169.527344 106.277344 169.527344 107.507812 L 169.527344 130.207031 C 169.527344 130.824219 170.027344 131.328125 170.648438 131.328125 C 171.269531 131.328125 171.769531 130.824219 171.769531 130.207031 L 171.769531 107.507812 C 171.769531 106.277344 172.765625 105.28125 173.996094 105.28125 C 175.226562 105.28125 176.222656 106.277344 176.222656 107.507812 L 176.222656 130.207031 C 176.222656 130.824219 176.722656 131.328125 177.34375 131.328125 C 177.960938 131.328125 178.464844 130.824219 178.464844 130.207031 L 178.464844 107.507812 C 178.464844 106.277344 179.460938 105.28125 180.691406 105.28125 C 181.921875 105.28125 182.917969 106.277344 182.917969 107.507812 L 182.917969 135.359375 C 182.917969 141.21875 180.507812 146.117188 175.019531 147.335938 Z M 218.332031 161.628906 L 218.332031 200.015625 C 218.332031 203.917969 214.804688 207.085938 210.453125 207.085938 C 206.097656 207.085938 202.570312 203.917969 202.570312 200.015625 L 202.570312 164.773438 L 197.40625 163.078125 L 197.40625 125.574219 C 197.40625 114.367188 205.835938 105.28125 218.332031 105.28125 Z M 218.332031 161.628906 " fill-opacity="1" fill-rule="nonzero"/></g></svg>