<svg xmlns="http://www.w3.org/2000/svg" xmlns:xlink="http://www.w3.org/1999/xlink" width="500" zoomAndPan="magnify" viewBox="0 0 375 374.999991" height="500" preserveAspectRatio="xMidYMid meet" version="1.0"><path fill="#ff3131" d="M 216.925781 187.574219 L 304.964844 99.535156 C 313.066406 91.433594 313.082031 78.277344 304.976562 70.171875 C 296.886719 62.082031 283.726562 62.070312 275.613281 70.183594 L 187.574219 158.222656 L 99.535156 70.183594 C 91.433594 62.082031 78.277344 62.066406 70.171875 70.171875 C 62.085938 78.257812 62.074219 91.421875 70.1875 99.535156 L 158.222656 187.574219 L 70.1875 275.609375 C 62.085938 283.710938 62.066406 296.871094 70.171875 304.972656 C 78.261719 313.0625 91.425781 313.074219 99.535156 304.960938 L 187.574219 216.921875 L 275.613281 304.960938 C 283.714844 313.0625 296.871094 313.078125 304.976562 304.972656 C 313.066406 296.886719 313.074219 283.722656 304.964844 275.609375 Z M 216.925781 187.574219 " fill-opacity="1" fill-rule="evenodd"/><path fill="#08202a" d="M 140.261719 285.625 C 127.695312 280.128906 116.382812 272.722656 106.316406 263.40625 C 107.34375 259.90625 107.90625 256.335938 108 252.691406 C 108.019531 252.496094 108.027344 252.300781 108.023438 252.101562 C 108.007812 250.273438 107.871094 248.457031 107.613281 246.648438 C 107.351562 244.839844 106.976562 243.054688 106.480469 241.296875 C 105.980469 239.535156 105.371094 237.816406 104.644531 236.140625 C 103.917969 234.464844 103.082031 232.84375 102.140625 231.277344 C 101.199219 229.710938 100.15625 228.210938 99.015625 226.785156 C 97.871094 225.359375 96.640625 224.011719 95.320312 222.75 C 93.996094 221.488281 92.597656 220.316406 91.121094 219.242188 C 89.644531 218.164062 88.101562 217.191406 86.492188 216.320312 C 85.25 215.652344 83.976562 215.050781 82.667969 214.523438 L 82.667969 163.480469 C 93.519531 152.734375 97.550781 136.347656 98.964844 121.652344 C 99.6875 114.210938 99.574219 106.777344 98.625 99.359375 C 98.65625 99.332031 98.683594 99.304688 98.710938 99.273438 C 102.050781 95.546875 105.613281 92.042969 109.394531 88.761719 C 113.175781 85.480469 117.144531 82.449219 121.308594 79.667969 C 125.46875 76.886719 129.789062 74.375 134.265625 72.136719 C 138.746094 69.898438 143.34375 67.949219 148.066406 66.285156 C 153.859375 64.265625 151.367188 55.019531 145.523438 57.058594 C 136.269531 60.273438 127.492188 64.480469 119.191406 69.683594 C 110.894531 74.882812 103.28125 80.949219 96.359375 87.875 C 94.902344 82.328125 92.839844 77.011719 90.167969 71.933594 C 84.492188 61.257812 74.082031 52.082031 61.269531 54.808594 C 48.191406 57.59375 40.789062 72.230469 37.03125 83.6875 C 31.535156 100.433594 31.496094 119.375 35.582031 136.414062 C 37.023438 142.414062 46.253906 139.867188 44.816406 133.871094 C 40.734375 116.871094 41.460938 98.253906 47.8125 81.894531 C 48.878906 78.964844 50.296875 76.214844 52.0625 73.644531 C 53.824219 71.074219 55.882812 68.765625 58.230469 66.714844 C 59.035156 66.03125 59.910156 65.460938 60.863281 65.007812 C 61.816406 64.550781 62.8125 64.230469 63.847656 64.039062 C 64.886719 63.847656 65.929688 63.792969 66.984375 63.878906 C 68.035156 63.964844 69.058594 64.183594 70.050781 64.539062 C 74.914062 66.144531 78.554688 71.082031 81.097656 75.332031 C 84.992188 81.855469 87.101562 89.320312 88.476562 96.738281 C 91.511719 113.121094 90.089844 131.933594 82.660156 147.007812 C 80.792969 150.9375 78.292969 154.410156 75.160156 157.433594 C 74.664062 157.859375 74.289062 158.375 74.03125 158.972656 C 73.769531 159.574219 73.65625 160.199219 73.683594 160.855469 C 73.277344 161.589844 73.078125 162.382812 73.09375 163.222656 L 73.09375 212.011719 C 68.78125 211.441406 64.484375 211.546875 60.203125 212.332031 L 60.203125 163.222656 C 60.214844 162.449219 60.046875 161.71875 59.699219 161.027344 C 59.566406 160.046875 59.117188 159.242188 58.363281 158.609375 C 55.125 155.878906 52.503906 152.652344 50.5 148.921875 C 47.460938 143.554688 39.191406 148.375 42.234375 153.753906 C 44.4375 157.808594 47.238281 161.40625 50.628906 164.539062 L 50.628906 215.324219 C 48.394531 216.335938 46.273438 217.546875 44.261719 218.953125 C 42.746094 220.027344 41.3125 221.199219 39.957031 222.46875 C 38.601562 223.738281 37.339844 225.09375 36.167969 226.535156 C 35 227.976562 33.933594 229.492188 32.96875 231.082031 C 32.007812 232.667969 31.15625 234.316406 30.417969 236.019531 C 29.679688 237.722656 29.058594 239.46875 28.558594 241.257812 C 28.058594 243.046875 27.683594 244.859375 27.433594 246.699219 C 27.179688 248.539062 27.054688 250.386719 27.054688 252.242188 C 27.054688 254.101562 27.183594 255.949219 27.433594 257.789062 C 29.308594 271.59375 38.316406 282.933594 50.628906 288.839844 L 50.628906 308.355469 C 50.46875 311.207031 50.589844 314.050781 50.988281 316.882812 C 52.324219 323.605469 60.441406 326.449219 66.390625 326.449219 C 72.640625 326.449219 79.890625 324.097656 82.082031 317.558594 C 83 314.828125 82.667969 311.660156 82.667969 308.816406 L 82.667969 289.621094 C 84.71875 288.800781 86.6875 287.820312 88.578125 286.675781 C 90.464844 285.53125 92.246094 284.238281 93.917969 282.796875 C 95.589844 281.355469 97.132812 279.785156 98.542969 278.085938 C 99.953125 276.390625 101.214844 274.585938 102.324219 272.679688 C 112.265625 281.453125 123.300781 288.523438 135.429688 293.890625 C 137.816406 294.941406 140.546875 294.613281 141.976562 292.171875 C 143.179688 290.117188 142.648438 286.675781 140.261719 285.625 Z M 73.09375 305.402344 L 73.09375 313.703125 C 73.09375 316.6875 68.546875 316.878906 66.390625 316.878906 C 64.121094 316.878906 60.203125 316.421875 60.203125 313.507812 L 60.203125 292.003906 C 64.488281 292.777344 68.785156 292.84375 73.09375 292.203125 Z M 75.734375 281.929688 C 62.28125 285.800781 47.898438 279.523438 40.792969 267.714844 C 33.558594 255.699219 35.972656 240.109375 45.628906 230.230469 C 55.425781 220.210938 71.113281 218.550781 83.125 225.394531 C 84.433594 226.160156 85.675781 227.015625 86.859375 227.960938 C 88.039062 228.90625 89.144531 229.933594 90.175781 231.042969 C 91.203125 232.152344 92.148438 233.328125 93.003906 234.574219 C 93.863281 235.824219 94.625 237.125 95.292969 238.484375 C 95.957031 239.84375 96.519531 241.242188 96.980469 242.683594 C 97.441406 244.125 97.796875 245.59375 98.039062 247.085938 C 98.285156 248.578125 98.421875 250.082031 98.445312 251.59375 C 98.472656 253.105469 98.386719 254.613281 98.191406 256.113281 C 97.992188 257.613281 97.6875 259.089844 97.277344 260.546875 C 96.863281 262.003906 96.347656 263.421875 95.726562 264.800781 C 95.105469 266.179688 94.386719 267.507812 93.570312 268.78125 C 92.753906 270.054688 91.847656 271.261719 90.855469 272.40625 C 89.863281 273.546875 88.792969 274.609375 87.640625 275.59375 C 86.492188 276.578125 85.277344 277.476562 83.996094 278.28125 C 82.71875 279.089844 81.382812 279.796875 80 280.40625 C 78.617188 281.019531 77.195312 281.527344 75.734375 281.929688 Z M 120.480469 176.933594 C 120.480469 177.648438 120.515625 178.359375 120.582031 179.070312 C 120.652344 179.78125 120.757812 180.488281 120.898438 181.1875 C 121.035156 181.886719 121.210938 182.582031 121.417969 183.261719 C 121.625 183.945312 121.867188 184.617188 122.140625 185.277344 C 122.414062 185.9375 122.71875 186.582031 123.054688 187.210938 C 123.390625 187.84375 123.757812 188.453125 124.152344 189.046875 C 124.550781 189.640625 124.976562 190.214844 125.429688 190.765625 C 125.882812 191.316406 126.363281 191.847656 126.867188 192.351562 C 127.371094 192.855469 127.902344 193.335938 128.453125 193.789062 C 129.003906 194.242188 129.578125 194.667969 130.171875 195.0625 C 130.765625 195.460938 131.378906 195.828125 132.007812 196.164062 C 132.636719 196.5 133.28125 196.804688 133.941406 197.078125 C 134.601562 197.351562 135.273438 197.589844 135.957031 197.800781 C 136.640625 198.007812 137.332031 198.179688 138.035156 198.320312 C 138.734375 198.457031 139.441406 198.5625 140.152344 198.632812 C 140.863281 198.703125 141.574219 198.738281 142.289062 198.738281 C 143.003906 198.738281 143.714844 198.703125 144.425781 198.632812 C 145.136719 198.5625 145.84375 198.457031 146.542969 198.320312 C 147.246094 198.179688 147.9375 198.007812 148.621094 197.800781 C 149.304688 197.59375 149.976562 197.351562 150.636719 197.078125 C 151.296875 196.804688 151.941406 196.5 152.570312 196.164062 C 153.203125 195.828125 153.8125 195.460938 154.40625 195.0625 C 155 194.667969 155.574219 194.242188 156.125 193.789062 C 156.679688 193.335938 157.207031 192.855469 157.710938 192.351562 C 158.21875 191.847656 158.695312 191.320312 159.148438 190.765625 C 159.601562 190.214844 160.027344 189.640625 160.425781 189.046875 C 160.820312 188.453125 161.1875 187.84375 161.527344 187.214844 C 161.863281 186.582031 162.167969 185.9375 162.441406 185.277344 C 162.714844 184.621094 162.953125 183.949219 163.160156 183.265625 C 163.371094 182.582031 163.542969 181.890625 163.683594 181.1875 C 163.820312 180.488281 163.925781 179.78125 163.996094 179.074219 C 164.066406 178.363281 164.101562 177.648438 164.101562 176.933594 C 164.101562 176.222656 164.066406 175.507812 163.996094 174.796875 C 163.925781 174.085938 163.820312 173.382812 163.683594 172.683594 C 163.542969 171.980469 163.371094 171.289062 163.160156 170.605469 C 162.953125 169.921875 162.714844 169.25 162.441406 168.589844 C 162.167969 167.933594 161.863281 167.285156 161.527344 166.65625 C 161.1875 166.027344 160.824219 165.414062 160.425781 164.820312 C 160.027344 164.226562 159.605469 163.65625 159.148438 163.101562 C 158.695312 162.550781 158.21875 162.023438 157.714844 161.519531 C 157.207031 161.011719 156.679688 160.535156 156.128906 160.082031 C 155.574219 159.628906 155 159.203125 154.40625 158.804688 C 153.8125 158.410156 153.203125 158.042969 152.570312 157.707031 C 151.941406 157.371094 151.296875 157.066406 150.636719 156.792969 C 149.976562 156.519531 149.304688 156.277344 148.621094 156.070312 C 147.9375 155.863281 147.246094 155.691406 146.546875 155.550781 C 145.84375 155.410156 145.140625 155.308594 144.429688 155.238281 C 143.71875 155.167969 143.003906 155.132812 142.289062 155.132812 C 141.574219 155.132812 140.863281 155.167969 140.152344 155.238281 C 139.441406 155.308594 138.734375 155.410156 138.035156 155.550781 C 137.335938 155.691406 136.640625 155.863281 135.957031 156.070312 C 135.273438 156.277344 134.605469 156.519531 133.945312 156.792969 C 133.285156 157.066406 132.636719 157.371094 132.007812 157.707031 C 131.378906 158.042969 130.765625 158.410156 130.171875 158.804688 C 129.578125 159.203125 129.003906 159.628906 128.453125 160.082031 C 127.902344 160.535156 127.371094 161.011719 126.867188 161.519531 C 126.363281 162.023438 125.882812 162.550781 125.429688 163.101562 C 124.976562 163.65625 124.550781 164.226562 124.15625 164.820312 C 123.757812 165.414062 123.390625 166.027344 123.054688 166.65625 C 122.71875 167.285156 122.414062 167.929688 122.140625 168.589844 C 121.867188 169.25 121.625 169.921875 121.417969 170.605469 C 121.210938 171.289062 121.039062 171.980469 120.898438 172.679688 C 120.757812 173.382812 120.652344 174.085938 120.582031 174.796875 C 120.515625 175.507812 120.480469 176.21875 120.480469 176.933594 Z M 135.851562 187.316406 C 135.328125 187.316406 134.824219 187.21875 134.339844 187.015625 C 133.855469 186.816406 133.429688 186.53125 133.058594 186.160156 C 132.6875 185.792969 132.402344 185.363281 132.203125 184.882812 C 132.003906 184.398438 131.902344 183.894531 131.902344 183.371094 C 131.902344 182.847656 132.003906 182.34375 132.203125 181.863281 C 132.402344 181.378906 132.6875 180.953125 133.058594 180.582031 C 133.429688 180.210938 133.855469 179.925781 134.339844 179.726562 C 134.824219 179.527344 135.328125 179.425781 135.851562 179.425781 C 136.375 179.425781 136.878906 179.527344 137.359375 179.726562 C 137.84375 179.925781 138.269531 180.210938 138.640625 180.582031 C 139.011719 180.953125 139.296875 181.378906 139.496094 181.863281 C 139.695312 182.347656 139.796875 182.847656 139.796875 183.371094 C 139.796875 183.894531 139.695312 184.398438 139.496094 184.882812 C 139.296875 185.363281 139.011719 185.792969 138.640625 186.160156 C 138.269531 186.53125 137.84375 186.816406 137.359375 187.015625 C 136.878906 187.21875 136.375 187.316406 135.851562 187.316406 Z M 148.730469 177.558594 C 149.253906 177.558594 149.757812 177.65625 150.238281 177.859375 C 150.722656 178.058594 151.148438 178.34375 151.519531 178.714844 C 151.890625 179.082031 152.175781 179.511719 152.375 179.992188 C 152.574219 180.476562 152.675781 180.980469 152.675781 181.503906 C 152.675781 182.027344 152.574219 182.527344 152.375 183.011719 C 152.175781 183.496094 151.890625 183.921875 151.519531 184.292969 C 151.148438 184.664062 150.722656 184.949219 150.238281 185.148438 C 149.753906 185.347656 149.253906 185.449219 148.730469 185.449219 C 148.207031 185.449219 147.703125 185.347656 147.21875 185.148438 C 146.734375 184.949219 146.308594 184.664062 145.9375 184.292969 C 145.570312 183.921875 145.285156 183.496094 145.082031 183.011719 C 144.882812 182.527344 144.78125 182.027344 144.78125 181.503906 C 144.78125 180.980469 144.882812 180.476562 145.082031 179.992188 C 145.285156 179.511719 145.570312 179.082031 145.9375 178.714844 C 146.308594 178.34375 146.734375 178.058594 147.21875 177.859375 C 147.703125 177.65625 148.207031 177.558594 148.730469 177.558594 Z M 136.992188 174.234375 C 136.550781 174.234375 136.109375 174.191406 135.675781 174.105469 C 135.242188 174.019531 134.820312 173.890625 134.410156 173.722656 C 134 173.550781 133.609375 173.34375 133.242188 173.097656 C 132.875 172.851562 132.53125 172.574219 132.21875 172.257812 C 131.90625 171.945312 131.625 171.605469 131.378906 171.238281 C 131.132812 170.867188 130.925781 170.480469 130.753906 170.070312 C 130.585938 169.660156 130.457031 169.238281 130.371094 168.804688 C 130.285156 168.367188 130.242188 167.929688 130.242188 167.488281 C 130.242188 167.042969 130.285156 166.605469 130.371094 166.171875 C 130.457031 165.734375 130.585938 165.3125 130.753906 164.90625 C 130.925781 164.496094 131.132812 164.105469 131.378906 163.738281 C 131.625 163.367188 131.90625 163.027344 132.21875 162.714844 C 132.53125 162.402344 132.875 162.121094 133.242188 161.875 C 133.609375 161.628906 134 161.421875 134.410156 161.25 C 134.820312 161.082031 135.242188 160.953125 135.675781 160.867188 C 136.109375 160.78125 136.550781 160.738281 136.992188 160.738281 C 137.4375 160.738281 137.875 160.78125 138.308594 160.867188 C 138.746094 160.953125 139.167969 161.082031 139.578125 161.25 C 139.984375 161.421875 140.375 161.628906 140.742188 161.875 C 141.113281 162.121094 141.453125 162.402344 141.765625 162.714844 C 142.082031 163.027344 142.359375 163.367188 142.605469 163.738281 C 142.851562 164.105469 143.0625 164.496094 143.230469 164.902344 C 143.398438 165.3125 143.527344 165.734375 143.613281 166.171875 C 143.699219 166.605469 143.746094 167.042969 143.746094 167.488281 C 143.746094 167.929688 143.699219 168.367188 143.613281 168.804688 C 143.527344 169.238281 143.398438 169.660156 143.230469 170.070312 C 143.0625 170.480469 142.851562 170.867188 142.605469 171.238281 C 142.359375 171.605469 142.082031 171.945312 141.765625 172.257812 C 141.453125 172.574219 141.113281 172.851562 140.742188 173.097656 C 140.375 173.34375 139.988281 173.550781 139.578125 173.722656 C 139.167969 173.890625 138.746094 174.019531 138.308594 174.105469 C 137.875 174.191406 137.4375 174.234375 136.992188 174.234375 Z M 162.847656 218.207031 C 162.832031 216.992188 162.957031 215.792969 163.21875 214.605469 C 163.480469 213.417969 163.871094 212.277344 164.398438 211.179688 C 164.921875 210.085938 165.5625 209.0625 166.324219 208.113281 C 167.082031 207.164062 167.941406 206.316406 168.894531 205.566406 C 173.980469 201.597656 180.921875 202.390625 186.949219 202.015625 C 187.226562 202.035156 187.503906 202.035156 187.78125 202.015625 C 193.996094 202.402344 201.550781 201.519531 206.539062 206.113281 C 207.394531 206.867188 208.160156 207.707031 208.835938 208.625 C 209.507812 209.546875 210.078125 210.53125 210.539062 211.574219 C 211 212.617188 211.34375 213.699219 211.570312 214.816406 C 211.796875 215.9375 211.902344 217.066406 211.886719 218.207031 C 211.722656 222.09375 209.996094 226.238281 205.707031 226.867188 C 199.054688 227.84375 194.3125 220.675781 187.574219 221.207031 C 187.5 221.214844 187.4375 221.207031 187.367188 221.203125 C 187.296875 221.207031 187.234375 221.214844 187.160156 221.207031 C 180.433594 220.679688 175.195312 228.445312 168.539062 226.796875 C 164.667969 225.839844 162.835938 221.960938 162.847656 218.207031 Z M 155.597656 128.113281 C 150.964844 144.246094 133.105469 152.261719 117.363281 151.726562 C 113.464844 151.59375 113.453125 145.53125 117.363281 145.664062 C 130.34375 146.105469 145.863281 140.035156 149.753906 126.5 C 150.828125 122.753906 156.679688 124.347656 155.597656 128.113281 Z M 210.632812 176.933594 C 210.632812 177.648438 210.664062 178.359375 210.734375 179.070312 C 210.804688 179.78125 210.910156 180.488281 211.050781 181.1875 C 211.1875 181.886719 211.363281 182.582031 211.570312 183.261719 C 211.777344 183.945312 212.019531 184.617188 212.289062 185.277344 C 212.5625 185.9375 212.871094 186.582031 213.207031 187.210938 C 213.542969 187.84375 213.910156 188.453125 214.304688 189.046875 C 214.703125 189.640625 215.128906 190.214844 215.582031 190.765625 C 216.035156 191.320312 216.515625 191.847656 217.019531 192.351562 C 217.523438 192.855469 218.050781 193.335938 218.605469 193.789062 C 219.15625 194.242188 219.730469 194.667969 220.324219 195.0625 C 220.917969 195.460938 221.53125 195.828125 222.160156 196.164062 C 222.789062 196.5 223.433594 196.804688 224.09375 197.078125 C 224.753906 197.351562 225.425781 197.59375 226.109375 197.800781 C 226.792969 198.007812 227.484375 198.179688 228.1875 198.320312 C 228.886719 198.457031 229.59375 198.5625 230.304688 198.632812 C 231.015625 198.703125 231.726562 198.738281 232.441406 198.738281 C 233.15625 198.738281 233.867188 198.703125 234.578125 198.632812 C 235.289062 198.5625 235.996094 198.460938 236.695312 198.320312 C 237.398438 198.179688 238.089844 198.007812 238.773438 197.800781 C 239.457031 197.59375 240.128906 197.351562 240.789062 197.078125 C 241.449219 196.804688 242.09375 196.5 242.722656 196.164062 C 243.355469 195.828125 243.964844 195.460938 244.558594 195.066406 C 245.152344 194.667969 245.726562 194.242188 246.277344 193.789062 C 246.832031 193.335938 247.359375 192.859375 247.867188 192.351562 C 248.371094 191.847656 248.851562 191.320312 249.304688 190.769531 C 249.757812 190.214844 250.179688 189.644531 250.578125 189.050781 C 250.976562 188.457031 251.339844 187.84375 251.679688 187.214844 C 252.015625 186.585938 252.320312 185.9375 252.59375 185.28125 C 252.867188 184.621094 253.109375 183.949219 253.316406 183.265625 C 253.523438 182.582031 253.695312 181.890625 253.835938 181.1875 C 253.972656 180.488281 254.078125 179.785156 254.148438 179.074219 C 254.21875 178.363281 254.253906 177.648438 254.253906 176.9375 C 254.253906 176.222656 254.21875 175.507812 254.148438 174.796875 C 254.078125 174.089844 253.972656 173.382812 253.835938 172.683594 C 253.695312 171.980469 253.523438 171.289062 253.316406 170.605469 C 253.109375 169.921875 252.867188 169.25 252.59375 168.59375 C 252.320312 167.933594 252.015625 167.289062 251.679688 166.65625 C 251.34375 166.027344 250.976562 165.414062 250.578125 164.820312 C 250.179688 164.226562 249.757812 163.65625 249.304688 163.105469 C 248.851562 162.550781 248.371094 162.023438 247.867188 161.519531 C 247.359375 161.011719 246.832031 160.535156 246.28125 160.082031 C 245.726562 159.628906 245.15625 159.203125 244.5625 158.804688 C 243.964844 158.410156 243.355469 158.042969 242.726562 157.707031 C 242.09375 157.371094 241.449219 157.066406 240.789062 156.792969 C 240.128906 156.519531 239.457031 156.277344 238.773438 156.070312 C 238.089844 155.863281 237.398438 155.691406 236.699219 155.550781 C 235.996094 155.410156 235.292969 155.308594 234.582031 155.238281 C 233.871094 155.167969 233.15625 155.132812 232.441406 155.132812 C 231.730469 155.132812 231.015625 155.167969 230.304688 155.238281 C 229.59375 155.308594 228.886719 155.410156 228.1875 155.550781 C 227.488281 155.691406 226.796875 155.863281 226.113281 156.070312 C 225.429688 156.277344 224.757812 156.519531 224.097656 156.792969 C 223.4375 157.066406 222.792969 157.371094 222.160156 157.707031 C 221.53125 158.042969 220.917969 158.410156 220.324219 158.804688 C 219.730469 159.203125 219.160156 159.628906 218.605469 160.082031 C 218.054688 160.535156 217.523438 161.011719 217.019531 161.519531 C 216.515625 162.023438 216.035156 162.550781 215.582031 163.101562 C 215.128906 163.65625 214.703125 164.226562 214.308594 164.820312 C 213.910156 165.414062 213.542969 166.027344 213.207031 166.65625 C 212.871094 167.285156 212.566406 167.929688 212.292969 168.589844 C 212.019531 169.25 211.777344 169.921875 211.570312 170.605469 C 211.363281 171.289062 211.191406 171.980469 211.050781 172.679688 C 210.910156 173.382812 210.804688 174.085938 210.734375 174.796875 C 210.667969 175.507812 210.632812 176.21875 210.632812 176.933594 Z M 238.882812 187.316406 C 238.359375 187.316406 237.855469 187.21875 237.371094 187.015625 C 236.886719 186.816406 236.460938 186.53125 236.089844 186.160156 C 235.722656 185.792969 235.4375 185.363281 235.234375 184.882812 C 235.035156 184.398438 234.9375 183.894531 234.9375 183.371094 C 234.9375 182.847656 235.035156 182.34375 235.234375 181.863281 C 235.4375 181.378906 235.722656 180.953125 236.089844 180.582031 C 236.460938 180.210938 236.886719 179.925781 237.371094 179.726562 C 237.855469 179.527344 238.359375 179.425781 238.882812 179.425781 C 239.40625 179.425781 239.910156 179.527344 240.394531 179.726562 C 240.875 179.925781 241.304688 180.210938 241.671875 180.582031 C 242.042969 180.953125 242.328125 181.378906 242.527344 181.863281 C 242.730469 182.34375 242.828125 182.847656 242.828125 183.371094 C 242.828125 183.894531 242.730469 184.398438 242.527344 184.882812 C 242.328125 185.363281 242.042969 185.792969 241.671875 186.160156 C 241.304688 186.53125 240.875 186.816406 240.394531 187.015625 C 239.910156 187.21875 239.40625 187.316406 238.882812 187.316406 Z M 237.738281 160.738281 C 238.183594 160.738281 238.621094 160.78125 239.058594 160.867188 C 239.492188 160.953125 239.914062 161.082031 240.324219 161.25 C 240.734375 161.421875 241.121094 161.628906 241.492188 161.875 C 241.859375 162.121094 242.199219 162.402344 242.515625 162.714844 C 242.828125 163.027344 243.109375 163.367188 243.355469 163.738281 C 243.601562 164.105469 243.808594 164.496094 243.976562 164.902344 C 244.148438 165.3125 244.277344 165.734375 244.363281 166.171875 C 244.449219 166.605469 244.492188 167.042969 244.492188 167.488281 C 244.492188 167.929688 244.449219 168.367188 244.363281 168.804688 C 244.277344 169.238281 244.148438 169.660156 243.976562 170.070312 C 243.808594 170.480469 243.601562 170.867188 243.355469 171.234375 C 243.109375 171.605469 242.828125 171.945312 242.515625 172.257812 C 242.199219 172.574219 241.859375 172.851562 241.492188 173.097656 C 241.121094 173.34375 240.734375 173.550781 240.324219 173.722656 C 239.914062 173.890625 239.492188 174.019531 239.058594 174.105469 C 238.621094 174.191406 238.183594 174.234375 237.742188 174.234375 C 237.296875 174.234375 236.859375 174.191406 236.421875 174.105469 C 235.988281 174.019531 235.566406 173.890625 235.15625 173.722656 C 234.746094 173.550781 234.359375 173.34375 233.988281 173.097656 C 233.621094 172.851562 233.28125 172.574219 232.964844 172.257812 C 232.652344 171.945312 232.375 171.605469 232.125 171.238281 C 231.878906 170.867188 231.671875 170.480469 231.503906 170.070312 C 231.332031 169.660156 231.207031 169.238281 231.117188 168.804688 C 231.03125 168.367188 230.988281 167.929688 230.988281 167.488281 C 230.988281 167.042969 231.03125 166.605469 231.117188 166.171875 C 231.203125 165.734375 231.332031 165.3125 231.503906 164.902344 C 231.671875 164.496094 231.878906 164.105469 232.125 163.738281 C 232.371094 163.367188 232.652344 163.027344 232.964844 162.714844 C 233.28125 162.402344 233.621094 162.121094 233.988281 161.875 C 234.359375 161.628906 234.746094 161.421875 235.15625 161.25 C 235.566406 161.082031 235.988281 160.953125 236.421875 160.867188 C 236.859375 160.78125 237.296875 160.738281 237.738281 160.738281 Z M 226.003906 177.558594 C 226.527344 177.558594 227.03125 177.65625 227.515625 177.859375 C 227.996094 178.058594 228.425781 178.34375 228.792969 178.714844 C 229.164062 179.082031 229.449219 179.511719 229.648438 179.992188 C 229.851562 180.476562 229.949219 180.980469 229.949219 181.503906 C 229.949219 182.027344 229.851562 182.527344 229.648438 183.011719 C 229.449219 183.496094 229.164062 183.921875 228.792969 184.292969 C 228.425781 184.664062 227.996094 184.949219 227.515625 185.148438 C 227.03125 185.347656 226.527344 185.449219 226.003906 185.449219 C 225.480469 185.449219 224.976562 185.347656 224.492188 185.148438 C 224.011719 184.949219 223.582031 184.664062 223.214844 184.292969 C 222.84375 183.921875 222.558594 183.496094 222.359375 183.011719 C 222.15625 182.53125 222.058594 182.027344 222.058594 181.503906 C 222.058594 180.980469 222.15625 180.476562 222.359375 179.992188 C 222.558594 179.511719 222.84375 179.082031 223.214844 178.714844 C 223.582031 178.34375 224.011719 178.058594 224.492188 177.859375 C 224.976562 177.65625 225.480469 177.558594 226.003906 177.558594 Z M 219.132812 128.113281 C 218.054688 124.347656 223.902344 122.75 224.980469 126.5 C 228.867188 140.035156 244.386719 146.105469 257.371094 145.664062 C 261.28125 145.53125 261.269531 151.59375 257.371094 151.726562 C 241.628906 152.261719 223.769531 144.246094 219.132812 128.113281 Z M 347.296875 246.417969 C 345.332031 231.917969 335.496094 220.136719 322.226562 214.519531 L 322.226562 166.242188 C 336.609375 157.683594 344.222656 140.433594 346.546875 124.441406 C 346.921875 121.859375 345.949219 119.308594 343.203125 118.554688 C 340.925781 117.929688 337.691406 119.308594 337.3125 121.894531 C 335.203125 136.445312 328.863281 152.347656 314.980469 159.304688 C 314.546875 159.492188 314.15625 159.75 313.8125 160.074219 C 313.464844 160.398438 313.1875 160.773438 312.972656 161.195312 C 312.761719 161.617188 312.625 162.066406 312.570312 162.535156 C 312.515625 163.007812 312.542969 163.472656 312.652344 163.933594 L 312.652344 211.90625 C 308.332031 211.347656 304.035156 211.484375 299.761719 212.320312 L 299.761719 164.449219 C 299.769531 163.714844 299.617188 163.011719 299.308594 162.34375 C 299.152344 161.726562 298.863281 161.179688 298.445312 160.699219 C 298.03125 160.21875 297.527344 159.855469 296.9375 159.617188 C 282.496094 152.828125 275.59375 136.039062 273.851562 121.03125 C 272.378906 108.324219 274.105469 94.242188 280.199219 82.675781 L 280.199219 124.09375 C 280.203125 124.40625 280.238281 124.71875 280.300781 125.023438 C 280.363281 125.332031 280.457031 125.628906 280.578125 125.917969 C 280.699219 126.207031 280.847656 126.480469 281.019531 126.742188 C 281.195312 127 281.394531 127.242188 281.617188 127.464844 C 281.835938 127.6875 282.078125 127.882812 282.339844 128.058594 C 282.597656 128.234375 282.875 128.382812 283.164062 128.503906 C 283.453125 128.625 283.75 128.714844 284.058594 128.78125 C 284.363281 128.84375 284.675781 128.875 284.988281 128.878906 L 295.605469 128.878906 C 295.917969 128.875 296.230469 128.84375 296.535156 128.78125 C 296.84375 128.714844 297.140625 128.625 297.429688 128.503906 C 297.71875 128.382812 297.996094 128.234375 298.253906 128.058594 C 298.515625 127.882812 298.757812 127.6875 298.976562 127.464844 C 299.199219 127.242188 299.398438 127 299.574219 126.742188 C 299.746094 126.480469 299.894531 126.207031 300.015625 125.917969 C 300.136719 125.628906 300.230469 125.332031 300.292969 125.023438 C 300.355469 124.71875 300.390625 124.40625 300.394531 124.09375 L 300.394531 64.550781 C 304.078125 63.667969 307.753906 63.714844 311.417969 64.6875 L 311.417969 124.09375 C 311.417969 124.40625 311.453125 124.71875 311.515625 125.023438 C 311.578125 125.332031 311.671875 125.628906 311.792969 125.917969 C 311.914062 126.207031 312.0625 126.480469 312.238281 126.742188 C 312.410156 127 312.609375 127.242188 312.832031 127.464844 C 313.054688 127.6875 313.292969 127.882812 313.554688 128.058594 C 313.816406 128.234375 314.089844 128.382812 314.378906 128.503906 C 314.667969 128.625 314.964844 128.714844 315.273438 128.78125 C 315.578125 128.84375 315.890625 128.875 316.203125 128.878906 L 326.824219 128.878906 C 327.136719 128.875 327.445312 128.84375 327.753906 128.78125 C 328.058594 128.714844 328.359375 128.625 328.648438 128.503906 C 328.9375 128.382812 329.210938 128.234375 329.472656 128.058594 C 329.730469 127.882812 329.972656 127.6875 330.195312 127.464844 C 330.417969 127.242188 330.613281 127 330.789062 126.742188 C 330.964844 126.480469 331.113281 126.207031 331.234375 125.917969 C 331.355469 125.628906 331.445312 125.332031 331.511719 125.023438 C 331.574219 124.71875 331.605469 124.40625 331.609375 124.09375 L 331.609375 83.847656 C 335.125 91.277344 337.148438 99.089844 337.679688 107.292969 C 338.140625 113.40625 347.71875 113.453125 347.253906 107.292969 C 346.097656 91.949219 341.082031 76.546875 330.207031 65.296875 C 329.941406 65.039062 329.652344 64.816406 329.335938 64.625 C 329.019531 64.433594 328.6875 64.28125 328.335938 64.167969 C 327.984375 64.054688 327.625 63.980469 327.257812 63.949219 C 326.890625 63.917969 326.523438 63.929688 326.15625 63.984375 C 325.792969 64.035156 325.4375 64.128906 325.09375 64.265625 C 324.75 64.398438 324.425781 64.570312 324.121094 64.78125 C 323.820312 64.988281 323.542969 65.230469 323.292969 65.503906 C 323.046875 65.777344 322.832031 66.074219 322.652344 66.394531 L 322.652344 119.308594 L 320.257812 119.308594 L 320.257812 58.765625 C 319.550781 57.769531 318.621094 57.058594 317.476562 56.632812 C 315.644531 55.882812 313.753906 55.308594 311.8125 54.917969 C 309.871094 54.523438 307.910156 54.316406 305.925781 54.296875 C 303.945312 54.277344 301.980469 54.445312 300.03125 54.800781 C 298.078125 55.15625 296.179688 55.691406 294.332031 56.40625 C 293.113281 56.832031 292.152344 57.589844 291.457031 58.675781 L 291.457031 105.089844 L 290.417969 103.898438 C 290.304688 103.757812 290.1875 103.621094 290.066406 103.492188 L 289.0625 102.34375 L 289.0625 65.65625 C 288.871094 65.351562 288.648438 65.070312 288.394531 64.816406 C 288.140625 64.5625 287.863281 64.335938 287.558594 64.144531 C 287.253906 63.949219 286.933594 63.792969 286.59375 63.671875 C 286.257812 63.550781 285.910156 63.46875 285.550781 63.421875 C 285.195312 63.378906 284.835938 63.375 284.480469 63.410156 C 284.121094 63.445312 283.769531 63.519531 283.429688 63.632812 C 283.085938 63.746094 282.761719 63.898438 282.453125 64.082031 C 282.144531 64.269531 281.863281 64.484375 281.601562 64.734375 C 276.75 69.625 272.933594 75.21875 270.148438 81.515625 C 266.894531 78.710938 263.507812 76.074219 259.988281 73.605469 C 256.472656 71.136719 252.835938 68.851562 249.089844 66.75 C 245.339844 64.648438 241.496094 62.738281 237.558594 61.019531 C 233.617188 59.304688 229.601562 57.789062 225.511719 56.472656 C 221.417969 55.160156 217.269531 54.054688 213.066406 53.15625 C 208.863281 52.257812 204.628906 51.570312 200.355469 51.097656 C 196.082031 50.625 191.800781 50.367188 187.5 50.324219 C 183.203125 50.28125 178.914062 50.453125 174.632812 50.839844 C 168.539062 51.40625 168.484375 60.980469 174.632812 60.410156 C 178.742188 60.015625 182.863281 59.832031 186.992188 59.859375 C 191.121094 59.890625 195.238281 60.136719 199.339844 60.59375 C 203.445312 61.050781 207.511719 61.722656 211.546875 62.605469 C 215.582031 63.484375 219.558594 64.574219 223.476562 65.867188 C 227.398438 67.160156 231.242188 68.65625 235.007812 70.351562 C 238.773438 72.042969 242.4375 73.929688 246.007812 76.003906 C 249.578125 78.078125 253.027344 80.335938 256.363281 82.769531 C 259.699219 85.203125 262.898438 87.800781 265.960938 90.570312 C 266.1875 90.769531 266.425781 90.953125 266.679688 91.113281 C 263.917969 101.28125 263.15625 111.59375 264.398438 122.054688 C 266.382812 139.183594 274.328125 158.296875 290.1875 166.902344 L 290.1875 215.390625 C 288.007812 216.394531 285.941406 217.578125 283.976562 218.953125 C 282.675781 219.875 281.433594 220.871094 280.25 221.9375 C 279.066406 223.007812 277.949219 224.140625 276.898438 225.335938 C 275.847656 226.535156 274.867188 227.792969 273.960938 229.105469 C 273.058594 230.417969 272.230469 231.777344 271.484375 233.1875 C 270.738281 234.59375 270.078125 236.042969 269.5 237.527344 C 268.925781 239.015625 268.4375 240.527344 268.035156 242.074219 C 267.636719 243.617188 267.328125 245.175781 267.109375 246.753906 C 266.890625 248.335938 266.765625 249.921875 266.730469 251.515625 C 266.714844 251.710938 266.707031 251.90625 266.707031 252.101562 C 266.75 255.5625 267.21875 258.960938 268.105469 262.304688 C 264.613281 265.625 260.929688 268.722656 257.054688 271.597656 C 253.183594 274.472656 249.148438 277.097656 244.957031 279.480469 C 240.765625 281.863281 236.441406 283.984375 231.992188 285.839844 C 227.539062 287.695312 222.992188 289.277344 218.347656 290.578125 C 213.703125 291.882812 209 292.898438 204.230469 293.628906 C 199.464844 294.355469 194.667969 294.796875 189.847656 294.941406 C 185.027344 295.085938 180.214844 294.941406 175.414062 294.5 C 170.609375 294.0625 165.851562 293.332031 161.136719 292.3125 C 155.121094 291 152.5625 300.226562 158.59375 301.539062 C 163.550781 302.625 168.554688 303.414062 173.605469 303.90625 C 178.65625 304.398438 183.71875 304.59375 188.792969 304.488281 C 193.867188 304.382812 198.914062 303.980469 203.941406 303.277344 C 208.96875 302.574219 213.933594 301.582031 218.84375 300.292969 C 223.75 299.003906 228.566406 297.433594 233.289062 295.574219 C 238.011719 293.71875 242.609375 291.589844 247.078125 289.1875 C 251.550781 286.789062 255.863281 284.132812 260.019531 281.226562 C 264.179688 278.316406 268.148438 275.171875 271.933594 271.792969 C 273.828125 275.199219 276.160156 278.269531 278.933594 281.007812 C 281.707031 283.742188 284.808594 286.035156 288.238281 287.886719 C 288.878906 288.230469 289.53125 288.550781 290.1875 288.859375 L 290.1875 314.171875 C 290.1875 321.859375 297.675781 325.726562 304.34375 326.414062 C 310.136719 327.015625 317.207031 325.183594 320.457031 319.976562 C 322.457031 316.777344 322.226562 313.40625 322.226562 309.832031 L 322.226562 289.675781 C 325.148438 288.527344 327.898438 287.054688 330.472656 285.253906 C 331.988281 284.179688 333.421875 283.007812 334.777344 281.738281 C 336.132812 280.46875 337.394531 279.113281 338.5625 277.671875 C 339.734375 276.226562 340.800781 274.710938 341.765625 273.125 C 342.726562 271.535156 343.578125 269.890625 344.316406 268.1875 C 345.054688 266.484375 345.671875 264.738281 346.171875 262.949219 C 346.671875 261.160156 347.046875 259.347656 347.300781 257.507812 C 347.550781 255.667969 347.679688 253.820312 347.679688 251.960938 C 347.675781 250.105469 347.550781 248.257812 347.296875 246.417969 Z M 312.652344 306.003906 L 312.652344 313.875 C 312.652344 316.9375 307.4375 316.878906 305.339844 316.878906 C 302.679688 316.878906 299.761719 315.976562 299.761719 313.082031 L 299.761719 291.898438 C 304.042969 292.671875 308.339844 292.765625 312.652344 292.175781 Z M 329.101562 273.972656 C 320.929688 282.332031 308.660156 284.871094 297.839844 281.507812 C 297.148438 281.054688 296.390625 280.785156 295.566406 280.703125 C 294.078125 280.101562 292.648438 279.386719 291.269531 278.558594 C 289.894531 277.734375 288.59375 276.804688 287.359375 275.773438 C 286.128906 274.746094 284.984375 273.625 283.929688 272.417969 C 282.871094 271.210938 281.914062 269.929688 281.058594 268.570312 C 280.199219 267.214844 279.453125 265.800781 278.816406 264.328125 C 278.179688 262.855469 277.660156 261.339844 277.261719 259.785156 C 276.859375 258.234375 276.582031 256.65625 276.425781 255.058594 C 276.273438 253.464844 276.242188 251.863281 276.335938 250.261719 C 276.429688 248.660156 276.648438 247.074219 276.988281 245.507812 C 277.328125 243.9375 277.789062 242.40625 278.371094 240.910156 C 278.949219 239.414062 279.640625 237.972656 280.445312 236.582031 C 281.25 235.195312 282.160156 233.878906 283.167969 232.628906 C 284.179688 231.382812 285.277344 230.222656 286.46875 229.144531 C 287.660156 228.070312 288.929688 227.09375 290.273438 226.214844 C 291.613281 225.335938 293.019531 224.566406 294.480469 223.90625 C 295.945312 223.246094 297.449219 222.703125 298.996094 222.277344 C 312.449219 218.40625 326.832031 224.683594 333.941406 236.492188 C 341.171875 248.507812 338.757812 264.097656 329.101562 273.972656 Z M 329.101562 273.972656 " fill-opacity="1" fill-rule="nonzero"/></svg>