<svg xmlns="http://www.w3.org/2000/svg" xmlns:xlink="http://www.w3.org/1999/xlink" width="40" zoomAndPan="magnify" viewBox="0 0 30 30.000001" height="40" preserveAspectRatio="xMidYMid meet" version="1.0"><defs><clipPath id="b8f180929f"><path d="M 1.191406 2.277344 L 28.769531 2.277344 L 28.769531 26.953125 L 1.191406 26.953125 Z M 1.191406 2.277344 " clip-rule="nonzero"/></clipPath><clipPath id="dcd876cac2"><path d="M 1.726562 2.902344 L 28.28125 2.902344 L 28.28125 26.753906 L 1.726562 26.753906 Z M 1.726562 2.902344 " clip-rule="nonzero"/></clipPath><clipPath id="b58b9d3731"><path d="M 2.78125 6.710938 C 0.628906 10.351562 2.144531 13.898438 4.050781 15.777344 L 15.191406 26.753906 L 26.097656 15.816406 C 27.867188 13.792969 28.546875 11.648438 28.171875 9.257812 C 27.648438 5.953125 24.996094 3.386719 21.71875 3.019531 C 19.710938 2.800781 17.769531 3.382812 16.253906 4.675781 C 15.84375 5.023438 15.480469 5.410156 15.164062 5.835938 C 14.785156 5.351562 14.34375 4.914062 13.84375 4.523438 C 12.101562 3.164062 9.882812 2.628906 7.75 3.042969 C 5.734375 3.441406 3.921875 4.78125 2.78125 6.710938 Z M 2.78125 6.710938 " clip-rule="nonzero"/></clipPath><clipPath id="a259b21229"><path d="M 21.71875 5.066406 L 26.976562 5.066406 L 26.976562 13 L 21.71875 13 Z M 21.71875 5.066406 " clip-rule="nonzero"/></clipPath><clipPath id="b4db17a27a"><path d="M 24.289062 5.082031 C 26.539062 5.953125 26.976562 6.824219 26.976562 7.621094 C 26.976562 8.636719 25.960938 10.089844 25.304688 11.03125 C 24.796875 11.757812 24.21875 12.554688 23.636719 12.847656 C 23.273438 12.992188 22.765625 13.066406 22.476562 12.917969 C 22.113281 12.703125 21.75 11.976562 21.824219 11.394531 C 21.824219 10.453125 23.128906 8.417969 23.925781 7.910156 C 24.363281 7.546875 25.015625 7.402344 25.378906 7.546875 C 25.742188 7.765625 26.105469 8.492188 26.105469 8.925781 C 26.105469 9.289062 25.667969 9.726562 25.378906 9.871094 C 25.089844 10.015625 24.507812 9.945312 24.21875 9.796875 C 23.925781 9.582031 23.636719 9.144531 23.636719 8.78125 C 23.636719 8.417969 23.855469 7.910156 24.144531 7.695312 C 24.433594 7.476562 25.304688 7.476562 25.667969 7.695312 C 25.960938 7.984375 26.105469 8.636719 26.03125 9.21875 C 25.886719 10.160156 24.507812 12.484375 23.636719 12.847656 C 23.054688 12.992188 22.113281 12.628906 21.824219 12.265625 C 21.675781 11.976562 21.75 11.539062 21.894531 11.105469 C 22.257812 10.234375 25.089844 8.492188 24.945312 7.621094 C 24.871094 6.96875 22.910156 6.675781 22.695312 6.167969 C 22.621094 5.878906 22.839844 5.445312 23.054688 5.226562 C 23.347656 5.007812 24.289062 5.082031 24.289062 5.082031 " clip-rule="nonzero"/></clipPath><clipPath id="8ec293cd32"><path d="M 23.46875 4.363281 L 28.0625 4.363281 L 28.0625 10.359375 L 23.46875 10.359375 Z M 23.46875 4.363281 " clip-rule="nonzero"/></clipPath><clipPath id="ef52a83e04"><path d="M 26.175781 4.789062 C 27.992188 7.765625 27.917969 9.289062 27.628906 9.507812 C 27.484375 9.652344 27.121094 9.582031 26.976562 9.363281 C 26.757812 9.074219 27.703125 7.476562 27.410156 6.824219 C 27.121094 6.097656 25.378906 5.734375 25.378906 5.296875 C 25.304688 5.082031 25.742188 4.644531 25.960938 4.644531 C 26.175781 4.644531 26.613281 5.007812 26.832031 5.371094 C 27.046875 5.878906 27.265625 7.546875 26.976562 7.695312 C 26.539062 7.910156 24.289062 6.167969 24.144531 5.515625 C 24.074219 5.082031 24.433594 4.5 24.726562 4.425781 C 25.160156 4.28125 26.105469 4.644531 26.394531 5.007812 C 26.683594 5.371094 26.539062 6.097656 26.324219 6.75 C 26.03125 7.765625 24.726562 10.089844 24.144531 10.304688 C 23.855469 10.453125 23.492188 10.160156 23.492188 10.160156 C 23.492188 10.160156 24.144531 10.304688 24.144531 10.304688 C 24.144531 10.234375 23.566406 10.234375 23.492188 9.945312 C 23.273438 9.363281 26.25 6.316406 25.960938 5.589844 C 25.886719 5.152344 24.726562 4.933594 24.726562 5.007812 C 24.726562 5.007812 25.742188 5.445312 26.175781 5.804688 C 26.683594 6.167969 27.484375 7.039062 27.410156 7.332031 C 27.410156 7.476562 27.121094 7.765625 26.976562 7.695312 C 26.613281 7.621094 25.667969 5.589844 25.886719 5.371094 C 26.105469 5.226562 27.484375 5.734375 27.847656 6.242188 C 28.210938 6.96875 27.992188 9.21875 27.628906 9.507812 C 27.484375 9.652344 27.121094 9.582031 26.976562 9.363281 C 26.757812 9.074219 27.410156 7.984375 27.195312 7.402344 C 26.976562 6.75 25.886719 6.242188 25.667969 5.734375 C 25.453125 5.371094 25.378906 4.789062 25.453125 4.71875 C 25.597656 4.574219 26.175781 4.789062 26.175781 4.789062 " clip-rule="nonzero"/></clipPath><clipPath id="b3397ec834"><path d="M 23.617188 4.035156 L 28.519531 4.035156 L 28.519531 12.144531 L 23.617188 12.144531 Z M 23.617188 4.035156 " clip-rule="nonzero"/></clipPath><clipPath id="33f2a3a1c3"><path d="M 26.03125 6.96875 C 23.566406 4.789062 24.21875 4.136719 24.652344 4.066406 C 25.015625 3.992188 25.453125 4.28125 25.886719 4.71875 C 26.757812 5.515625 28.425781 8.273438 28.5 9.363281 C 28.574219 9.945312 28.425781 10.304688 28.066406 10.667969 C 27.628906 11.25 26.324219 12.121094 25.667969 12.121094 C 25.160156 12.121094 24.507812 11.832031 24.363281 11.46875 C 24.144531 11.105469 24.363281 10.234375 24.652344 10.015625 C 24.945312 9.726562 25.816406 9.726562 26.105469 9.871094 C 26.394531 10.089844 26.757812 10.597656 26.683594 10.886719 C 26.613281 11.324219 25.378906 12.195312 25.015625 12.046875 C 24.652344 11.976562 24.21875 10.960938 24.363281 10.378906 C 24.433594 9.796875 25.960938 9.363281 25.960938 8.636719 C 26.105469 7.621094 23.492188 5.660156 23.636719 4.933594 C 23.710938 4.5 24.363281 4.136719 24.871094 4.066406 C 25.523438 4.066406 26.757812 4.574219 27.195312 5.007812 C 27.484375 5.445312 27.628906 6.167969 27.484375 6.460938 C 27.265625 6.824219 26.03125 6.96875 26.03125 6.96875 " clip-rule="nonzero"/></clipPath></defs><g clip-path="url(#b8f180929f)"><path fill="#f95738" d="M 14.996094 26.746094 L 14.703125 26.546875 C 14.671875 26.523438 11.308594 24.226562 7.996094 21.050781 C 6.039062 19.171875 4.476562 17.359375 3.351562 15.660156 C 1.917969 13.484375 1.191406 11.46875 1.191406 9.679688 C 1.191406 5.601562 4.507812 2.285156 8.585938 2.285156 C 10.097656 2.285156 11.5625 2.746094 12.808594 3.632812 C 13.714844 4.273438 14.457031 5.089844 14.996094 6.027344 C 15.539062 5.082031 16.277344 4.265625 17.183594 3.632812 C 18.433594 2.746094 19.894531 2.285156 21.410156 2.285156 C 25.484375 2.285156 28.804688 5.601562 28.804688 9.679688 L 28.804688 9.683594 C 28.789062 11.460938 28.054688 13.460938 26.617188 15.632812 C 25.492188 17.332031 23.933594 19.144531 21.980469 21.027344 C 18.671875 24.214844 15.324219 26.523438 15.289062 26.546875 Z M 8.585938 3.316406 C 5.078125 3.316406 2.222656 6.171875 2.222656 9.679688 C 2.222656 11.261719 2.890625 13.082031 4.210938 15.078125 C 5.289062 16.714844 6.800781 18.472656 8.703125 20.292969 C 11.390625 22.871094 14.121094 24.867188 14.996094 25.484375 C 15.875 24.859375 18.585938 22.855469 21.273438 20.273438 C 23.164062 18.445312 24.671875 16.691406 25.757812 15.058594 C 27.078125 13.058594 27.753906 11.253906 27.765625 9.679688 C 27.765625 6.171875 24.910156 3.320312 21.402344 3.320312 C 18.804688 3.320312 16.421875 4.96875 15.472656 7.417969 L 14.992188 8.667969 L 14.515625 7.417969 C 13.566406 4.96875 11.1875 3.316406 8.585938 3.316406 Z M 8.585938 3.316406 " fill-opacity="1" fill-rule="nonzero"/></g><g clip-path="url(#dcd876cac2)"><g clip-path="url(#b58b9d3731)"><path fill="#f95738" d="M 1.726562 2.902344 L 28.28125 2.902344 L 28.28125 26.753906 L 1.726562 26.753906 Z M 1.726562 2.902344 " fill-opacity="1" fill-rule="nonzero"/></g></g><g clip-path="url(#a259b21229)"><g clip-path="url(#b4db17a27a)"><path fill="#f95738" d="M 18.917969 2.175781 L 29.953125 2.175781 L 29.953125 15.882812 L 18.917969 15.882812 Z M 18.917969 2.175781 " fill-opacity="1" fill-rule="nonzero"/></g></g><g clip-path="url(#8ec293cd32)"><g clip-path="url(#ef52a83e04)"><path fill="#f95738" d="M 20.589844 1.523438 L 30.824219 1.523438 L 30.824219 13.277344 L 20.589844 13.277344 Z M 20.589844 1.523438 " fill-opacity="1" fill-rule="nonzero"/></g></g><g clip-path="url(#b3397ec834)"><g clip-path="url(#33f2a3a1c3)"><path fill="#f95738" d="M 20.660156 1.160156 L 31.476562 1.160156 L 31.476562 15.015625 L 20.660156 15.015625 Z M 20.660156 1.160156 " fill-opacity="1" fill-rule="nonzero"/></g></g></svg>