<svg xmlns="http://www.w3.org/2000/svg" xmlns:xlink="http://www.w3.org/1999/xlink" width="40" zoomAndPan="magnify" viewBox="0 0 30 30.000001" height="40" preserveAspectRatio="xMidYMid meet" version="1.0"><defs><clipPath id="aeaef293de"><path d="M 1.191406 2.277344 L 28.769531 2.277344 L 28.769531 26.953125 L 1.191406 26.953125 Z M 1.191406 2.277344 " clip-rule="nonzero"/></clipPath></defs><g clip-path="url(#aeaef293de)"><path fill="#f95738" d="M 14.996094 26.746094 L 14.703125 26.546875 C 14.671875 26.523438 11.308594 24.226562 7.996094 21.050781 C 6.039062 19.171875 4.476562 17.359375 3.351562 15.660156 C 1.917969 13.484375 1.191406 11.46875 1.191406 9.679688 C 1.191406 5.601562 4.507812 2.285156 8.585938 2.285156 C 10.097656 2.285156 11.5625 2.746094 12.808594 3.632812 C 13.714844 4.273438 14.457031 5.089844 14.996094 6.027344 C 15.539062 5.082031 16.277344 4.265625 17.183594 3.632812 C 18.433594 2.746094 19.894531 2.285156 21.410156 2.285156 C 25.484375 2.285156 28.804688 5.601562 28.804688 9.679688 L 28.804688 9.683594 C 28.789062 11.460938 28.054688 13.460938 26.617188 15.632812 C 25.492188 17.332031 23.933594 19.144531 21.980469 21.027344 C 18.671875 24.214844 15.324219 26.523438 15.289062 26.546875 Z M 8.585938 3.316406 C 5.078125 3.316406 2.222656 6.171875 2.222656 9.679688 C 2.222656 11.261719 2.890625 13.082031 4.210938 15.078125 C 5.289062 16.714844 6.800781 18.472656 8.703125 20.292969 C 11.390625 22.871094 14.121094 24.867188 14.996094 25.484375 C 15.875 24.859375 18.585938 22.855469 21.273438 20.273438 C 23.164062 18.445312 24.671875 16.691406 25.757812 15.058594 C 27.078125 13.058594 27.753906 11.253906 27.765625 9.679688 C 27.765625 6.171875 24.910156 3.320312 21.402344 3.320312 C 18.804688 3.320312 16.421875 4.96875 15.472656 7.417969 L 14.992188 8.667969 L 14.515625 7.417969 C 13.566406 4.96875 11.1875 3.316406 8.585938 3.316406 Z M 8.585938 3.316406 " fill-opacity="1" fill-rule="nonzero"/></g></svg>