<svg xmlns="http://www.w3.org/2000/svg" xmlns:xlink="http://www.w3.org/1999/xlink" width="40" zoomAndPan="magnify" viewBox="0 0 30 30.000001" height="40" preserveAspectRatio="xMidYMid meet" version="1.0"><defs><clipPath id="3c4adf4bbd"><path d="M 0.882812 0.398438 L 19 0.398438 L 19 28.707031 L 0.882812 28.707031 Z M 0.882812 0.398438 " clip-rule="nonzero"/></clipPath><clipPath id="8214177eb5"><path d="M 16 7 L 29.191406 7 L 29.191406 18 L 16 18 Z M 16 7 " clip-rule="nonzero"/></clipPath></defs><g clip-path="url(#3c4adf4bbd)"><path fill="#ffffff" d="M 16.734375 6.21875 L 16.734375 2.132812 L 7.117188 2.132812 L 13.105469 4.164062 C 13.46875 4.285156 13.707031 4.621094 13.707031 5 L 13.707031 23.085938 L 16.734375 23.085938 L 16.734375 19 C 16.734375 18.507812 17.121094 18.117188 17.613281 18.117188 C 18.101562 18.117188 18.496094 18.507812 18.496094 19 L 18.496094 23.964844 C 18.496094 24.453125 18.101562 24.847656 17.613281 24.847656 L 13.707031 24.847656 L 13.707031 27.714844 C 13.707031 27.996094 13.574219 28.269531 13.34375 28.429688 C 13.1875 28.542969 13.011719 28.597656 12.824219 28.597656 C 12.738281 28.597656 12.640625 28.578125 12.542969 28.554688 L 1.480469 24.804688 C 1.472656 24.796875 1.464844 24.785156 1.445312 24.785156 C 1.417969 24.769531 1.394531 24.75 1.367188 24.742188 C 1.296875 24.707031 1.242188 24.664062 1.179688 24.617188 C 1.15625 24.59375 1.136719 24.566406 1.109375 24.539062 C 1.066406 24.488281 1.023438 24.433594 0.996094 24.363281 C 0.976562 24.335938 0.960938 24.308594 0.941406 24.273438 C 0.90625 24.179688 0.882812 24.070312 0.882812 23.964844 L 0.882812 1.253906 C 0.882812 1.144531 0.90625 1.039062 0.941406 0.945312 C 0.953125 0.925781 0.960938 0.90625 0.96875 0.890625 C 1.003906 0.800781 1.058594 0.722656 1.128906 0.644531 C 1.144531 0.632812 1.15625 0.617188 1.171875 0.609375 C 1.199219 0.582031 1.226562 0.554688 1.25 0.539062 C 1.269531 0.519531 1.304688 0.519531 1.324219 0.511719 C 1.394531 0.46875 1.472656 0.433594 1.558594 0.414062 C 1.605469 0.398438 1.648438 0.386719 1.691406 0.386719 C 1.71875 0.378906 1.738281 0.371094 1.761719 0.371094 L 17.613281 0.371094 C 18.101562 0.371094 18.496094 0.765625 18.496094 1.253906 L 18.496094 6.21875 C 18.496094 6.710938 18.101562 7.101562 17.613281 7.101562 C 17.121094 7.101562 16.734375 6.710938 16.734375 6.21875 Z M 16.734375 6.21875 " fill-opacity="1" fill-rule="nonzero"/></g><g clip-path="url(#8214177eb5)"><path fill="#ffffff" d="M 29.039062 12.960938 C 29.039062 12.957031 29.042969 12.957031 29.042969 12.953125 C 29.085938 12.847656 29.113281 12.730469 29.113281 12.609375 C 29.113281 12.484375 29.085938 12.371094 29.042969 12.261719 C 29.042969 12.261719 29.039062 12.261719 29.039062 12.257812 C 28.992188 12.152344 28.925781 12.058594 28.847656 11.980469 C 28.84375 11.976562 28.84375 11.976562 28.84375 11.972656 L 24.824219 8.097656 C 24.476562 7.761719 23.917969 7.769531 23.578125 8.121094 C 23.238281 8.46875 23.25 9.03125 23.601562 9.367188 L 26.042969 11.726562 L 17.46875 11.726562 C 16.980469 11.726562 16.585938 12.121094 16.585938 12.605469 C 16.585938 13.09375 16.980469 13.488281 17.46875 13.488281 L 26.042969 13.488281 L 23.601562 15.847656 C 23.25 16.183594 23.238281 16.746094 23.578125 17.09375 C 23.75 17.273438 23.984375 17.363281 24.214844 17.363281 C 24.433594 17.363281 24.65625 17.28125 24.824219 17.117188 L 28.84375 13.242188 C 28.84375 13.242188 28.84375 13.238281 28.847656 13.238281 C 28.925781 13.15625 28.992188 13.0625 29.039062 12.960938 Z M 29.039062 12.960938 " fill-opacity="1" fill-rule="nonzero"/></g></svg>