<svg xmlns="http://www.w3.org/2000/svg" xmlns:xlink="http://www.w3.org/1999/xlink" width="40" zoomAndPan="magnify" viewBox="0 0 30 30.000001" height="40" preserveAspectRatio="xMidYMid meet" version="1.0"><defs><clipPath id="3ca6ee705c"><path d="M 0.902344 2.085938 L 29.136719 2.085938 L 29.136719 26.851562 L 0.902344 26.851562 Z M 0.902344 2.085938 " clip-rule="nonzero"/></clipPath><clipPath id="24a71f8c6d"><path d="M 2.019531 6.121094 C -0.265625 9.886719 1.34375 13.550781 3.367188 15.496094 L 15.203125 26.851562 L 26.785156 15.539062 C 28.667969 13.445312 29.390625 11.226562 28.992188 8.753906 C 28.4375 5.332031 25.617188 2.679688 22.136719 2.300781 C 20.003906 2.070312 17.941406 2.675781 16.332031 4.011719 C 15.898438 4.375 15.511719 4.777344 15.171875 5.214844 C 14.773438 4.714844 14.300781 4.257812 13.769531 3.855469 C 11.921875 2.449219 9.5625 1.890625 7.300781 2.324219 C 5.15625 2.738281 3.234375 4.121094 2.019531 6.121094 Z M 2.019531 6.121094 " clip-rule="nonzero"/></clipPath></defs><g clip-path="url(#3ca6ee705c)"><g clip-path="url(#24a71f8c6d)"><path fill="#083d77" d="M 0.902344 2.179688 L 29.136719 2.179688 L 29.136719 26.851562 L 0.902344 26.851562 Z M 0.902344 2.179688 " fill-opacity="1" fill-rule="nonzero"/></g></g></svg>