<svg xmlns="http://www.w3.org/2000/svg" xmlns:xlink="http://www.w3.org/1999/xlink" width="40" zoomAndPan="magnify" viewBox="0 0 30 30.000001" height="40" preserveAspectRatio="xMidYMid meet" version="1.0"><defs><clipPath id="f6951369d1"><path d="M 0.484375 0 L 29.515625 0 L 29.515625 29.03125 L 0.484375 29.03125 Z M 0.484375 0 " clip-rule="nonzero"/></clipPath><clipPath id="4c9ecbbb09"><path d="M 1.210938 0 L 29.515625 0 L 29.515625 29 L 1.210938 29 Z M 1.210938 0 " clip-rule="nonzero"/></clipPath></defs><g clip-path="url(#f6951369d1)"><path fill="#ffffff" d="M 0.484375 0 L 29.515625 0 L 29.515625 29.03125 L 0.484375 29.03125 Z M 0.484375 0 " fill-opacity="1" fill-rule="nonzero"/><path fill="#ffffff" d="M 0.484375 0 L 29.515625 0 L 29.515625 29.03125 L 0.484375 29.03125 Z M 0.484375 0 " fill-opacity="1" fill-rule="nonzero"/></g><g clip-path="url(#4c9ecbbb09)"><path fill="#083d77" d="M 22.261719 22.96875 C 21.210938 23.867188 19.847656 24.410156 18.359375 24.410156 C 15.039062 24.410156 12.347656 21.71875 12.347656 18.398438 C 12.347656 15.082031 15.039062 12.390625 18.359375 12.390625 C 21.679688 12.390625 24.367188 15.082031 24.367188 18.398438 C 24.367188 19.683594 23.96875 20.871094 23.285156 21.847656 L 25.167969 23.671875 L 25.222656 23.617188 C 25.429688 23.402344 25.777344 23.398438 25.992188 23.605469 L 29.292969 26.808594 C 29.511719 27.019531 29.515625 27.367188 29.304688 27.582031 L 28.113281 28.808594 C 27.90625 29.027344 27.558594 29.03125 27.339844 28.820312 L 24.039062 25.617188 C 23.824219 25.410156 23.820312 25.0625 24.027344 24.847656 L 24.109375 24.761719 Z M 18.359375 13.800781 C 15.816406 13.800781 13.757812 15.859375 13.757812 18.398438 C 13.757812 20.941406 15.816406 23 18.359375 23 C 20.898438 23 22.957031 20.941406 22.957031 18.398438 C 22.957031 15.859375 20.898438 13.800781 18.359375 13.800781 Z M 9.828125 23.144531 L 1.425781 20.890625 C 1.296875 20.855469 1.207031 20.742188 1.207031 20.609375 L 1.207031 4.632812 C 1.207031 4.542969 1.25 4.457031 1.320312 4.402344 C 1.394531 4.347656 1.488281 4.328125 1.574219 4.351562 L 2.132812 4.5 C 2.132812 4.546875 2.132812 4.597656 2.132812 4.644531 C 2.132812 5.738281 2.59375 6.921875 3.308594 8.082031 C 4.257812 9.617188 5.648438 11.128906 6.691406 12.332031 C 6.945312 12.628906 7.316406 12.796875 7.707031 12.796875 C 8.097656 12.796875 8.46875 12.628906 8.726562 12.332031 C 9.066406 11.941406 9.441406 11.515625 9.828125 11.070312 Z M 10.761719 9.949219 C 11.25 9.34375 11.714844 8.714844 12.105469 8.082031 C 12.546875 7.363281 12.894531 6.640625 13.09375 5.933594 L 18.890625 4.378906 L 18.890625 11.472656 C 18.714844 11.460938 18.539062 11.453125 18.359375 11.453125 C 14.523438 11.453125 11.414062 14.5625 11.414062 18.398438 C 11.414062 19.972656 11.9375 21.425781 12.820312 22.589844 L 10.761719 23.144531 Z M 19.828125 4.378906 L 28.230469 6.628906 C 28.359375 6.664062 28.449219 6.78125 28.449219 6.914062 L 28.449219 22.894531 C 28.449219 22.984375 28.40625 23.070312 28.332031 23.125 C 28.261719 23.179688 28.167969 23.199219 28.078125 23.175781 L 24.210938 22.140625 C 24.902344 21.058594 25.304688 19.777344 25.304688 18.398438 C 25.304688 15.066406 22.957031 12.285156 19.828125 11.609375 Z M 8.019531 11.71875 C 7.941406 11.8125 7.828125 11.863281 7.707031 11.863281 C 7.589844 11.863281 7.476562 11.8125 7.398438 11.71875 C 5.707031 9.769531 3.066406 6.996094 3.066406 4.644531 C 3.066406 2.082031 5.144531 0.00390625 7.707031 0.00390625 C 10.269531 0.00390625 12.347656 2.082031 12.347656 4.644531 C 12.347656 6.996094 9.707031 9.769531 8.019531 11.71875 Z M 7.707031 7.519531 C 9.292969 7.519531 10.585938 6.230469 10.585938 4.644531 C 10.585938 3.058594 9.292969 1.769531 7.707031 1.769531 C 6.125 1.769531 4.832031 3.058594 4.832031 4.644531 C 4.832031 6.230469 6.125 7.519531 7.707031 7.519531 Z M 7.707031 7.519531 " fill-opacity="1" fill-rule="evenodd"/></g></svg>