<svg xmlns="http://www.w3.org/2000/svg" xmlns:xlink="http://www.w3.org/1999/xlink" width="40" zoomAndPan="magnify" viewBox="0 0 30 30.000001" height="40" preserveAspectRatio="xMidYMid meet" version="1.0"><defs><clipPath id="3222050442"><path d="M 0.484375 0 L 29.515625 0 L 29.515625 29.03125 L 0.484375 29.03125 Z M 0.484375 0 " clip-rule="nonzero"/></clipPath></defs><g clip-path="url(#3222050442)"><path fill="#083d77" d="M 15 0 C 6.976562 0 0.484375 6.492188 0.484375 14.515625 C 0.484375 22.539062 6.976562 29.03125 15 29.03125 C 23.023438 29.03125 29.515625 22.539062 29.515625 14.515625 C 29.515625 6.492188 23.023438 0 15 0 Z M 15 27.324219 C 7.9375 27.324219 2.191406 21.578125 2.191406 14.515625 C 2.191406 7.453125 7.9375 1.707031 15 1.707031 C 22.0625 1.707031 27.808594 7.453125 27.808594 14.515625 C 27.808594 21.578125 22.0625 27.324219 15 27.324219 Z M 15 27.324219 " fill-opacity="1" fill-rule="nonzero"/></g><path fill="#083d77" d="M 22.683594 19.640625 L 14 19.640625 C 13.648438 18.644531 12.699219 17.933594 11.585938 17.933594 C 10.472656 17.933594 9.523438 18.644531 9.167969 19.640625 L 7.316406 19.640625 C 6.84375 19.640625 6.460938 20.023438 6.460938 20.492188 C 6.460938 20.964844 6.84375 21.347656 7.316406 21.347656 L 9.167969 21.347656 C 9.523438 22.339844 10.472656 23.054688 11.585938 23.054688 C 12.699219 23.054688 13.648438 22.339844 14 21.347656 L 22.683594 21.347656 C 23.15625 21.347656 23.539062 20.964844 23.539062 20.492188 C 23.539062 20.023438 23.15625 19.640625 22.683594 19.640625 Z M 22.683594 19.640625 " fill-opacity="1" fill-rule="nonzero"/><path fill="#083d77" d="M 22.683594 8.539062 L 14 8.539062 C 13.648438 7.546875 12.699219 6.832031 11.585938 6.832031 C 10.472656 6.832031 9.523438 7.546875 9.167969 8.539062 L 7.316406 8.539062 C 6.84375 8.539062 6.460938 8.921875 6.460938 9.394531 C 6.460938 9.863281 6.84375 10.246094 7.316406 10.246094 L 9.167969 10.246094 C 9.523438 11.242188 10.472656 11.953125 11.585938 11.953125 C 12.699219 11.953125 13.648438 11.242188 14 10.246094 L 22.683594 10.246094 C 23.15625 10.246094 23.539062 9.863281 23.539062 9.394531 C 23.539062 8.921875 23.15625 8.539062 22.683594 8.539062 Z M 22.683594 8.539062 " fill-opacity="1" fill-rule="nonzero"/><path fill="#083d77" d="M 22.683594 13.664062 L 20.832031 13.664062 C 20.476562 12.667969 19.527344 11.953125 18.414062 11.953125 C 17.300781 11.953125 16.351562 12.667969 16 13.664062 L 7.316406 13.664062 C 6.84375 13.664062 6.460938 14.042969 6.460938 14.515625 C 6.460938 14.988281 6.84375 15.371094 7.316406 15.371094 L 16 15.371094 C 16.351562 16.363281 17.300781 17.078125 18.414062 17.078125 C 19.527344 17.078125 20.476562 16.363281 20.832031 15.371094 L 22.683594 15.371094 C 23.15625 15.371094 23.539062 14.988281 23.539062 14.515625 C 23.539062 14.042969 23.15625 13.664062 22.683594 13.664062 Z M 22.683594 13.664062 " fill-opacity="1" fill-rule="nonzero"/></svg>