<svg xmlns="http://www.w3.org/2000/svg" xmlns:xlink="http://www.w3.org/1999/xlink" width="40" zoomAndPan="magnify" viewBox="0 0 30 30.000001" height="40" preserveAspectRatio="xMidYMid meet" version="1.0"><defs><clipPath id="16bba6a3dc"><path d="M 7.59375 23 L 22.109375 23 L 22.109375 25 L 7.59375 25 Z M 7.59375 23 " clip-rule="nonzero"/></clipPath><clipPath id="fa173d076f"><path d="M 8 4.066406 L 22 4.066406 L 22 25 L 8 25 Z M 8 4.066406 " clip-rule="nonzero"/></clipPath></defs><g clip-path="url(#16bba6a3dc)"><path fill="#ffffff" d="M 16.203125 23.140625 C 15.703125 23.859375 15.382812 24.300781 15.375 24.3125 C 15.289062 24.433594 15.148438 24.503906 15 24.503906 C 14.851562 24.503906 14.710938 24.433594 14.621094 24.3125 C 14.613281 24.300781 14.292969 23.859375 13.796875 23.140625 C 10.277344 23.210938 7.59375 23.585938 7.59375 24.035156 C 7.59375 24.539062 10.910156 24.945312 15 24.945312 C 19.089844 24.945312 22.40625 24.539062 22.40625 24.035156 C 22.40625 23.585938 19.71875 23.210938 16.203125 23.140625 " fill-opacity="1" fill-rule="nonzero"/></g><g clip-path="url(#fa173d076f)"><path fill="#ffffff" d="M 15 15.929688 C 12.226562 15.929688 9.976562 13.679688 9.976562 10.910156 C 9.976562 8.136719 12.226562 5.886719 15 5.886719 C 17.773438 5.886719 20.019531 8.136719 20.019531 10.910156 C 20.019531 13.679688 17.773438 15.929688 15 15.929688 Z M 15 4.078125 C 11.226562 4.078125 8.167969 7.136719 8.167969 10.910156 C 8.167969 14.679688 15 24.035156 15 24.035156 C 15 24.035156 21.828125 14.679688 21.828125 10.910156 C 21.828125 7.136719 18.773438 4.078125 15 4.078125 " fill-opacity="1" fill-rule="nonzero"/></g><path fill="#ffffff" d="M 15.898438 9.285156 C 15.707031 9.285156 15.558594 9.183594 15.5625 9.058594 C 15.570312 8.933594 15.722656 8.835938 15.90625 8.835938 C 16.085938 8.835938 16.238281 8.933594 16.238281 9.058594 C 16.242188 9.183594 16.089844 9.285156 15.898438 9.285156 Z M 15.40625 10.335938 C 15.398438 10.5 15.207031 10.640625 14.980469 10.640625 C 14.753906 10.640625 14.585938 10.5 14.605469 10.335938 C 14.625 10.171875 14.816406 10.042969 15.03125 10.042969 C 15.25 10.042969 15.417969 10.171875 15.40625 10.335938 Z M 14.273438 9.324219 C 14.257812 9.425781 14.125 9.507812 13.972656 9.507812 C 13.824219 9.507812 13.722656 9.425781 13.742188 9.324219 C 13.765625 9.222656 13.898438 9.144531 14.042969 9.144531 C 14.1875 9.144531 14.292969 9.222656 14.273438 9.324219 Z M 13.894531 10.476562 C 13.863281 10.652344 13.640625 10.800781 13.402344 10.800781 C 13.164062 10.800781 13.007812 10.652344 13.054688 10.476562 C 13.097656 10.304688 13.316406 10.167969 13.542969 10.167969 C 13.765625 10.167969 13.925781 10.304688 13.894531 10.476562 Z M 13.222656 11.902344 C 13.203125 11.996094 13.097656 12.074219 12.984375 12.074219 C 12.875 12.074219 12.804688 11.996094 12.824219 11.902344 C 12.847656 11.8125 12.953125 11.738281 13.0625 11.738281 C 13.167969 11.738281 13.242188 11.8125 13.222656 11.902344 Z M 16.859375 10.148438 C 16.851562 10.078125 16.925781 10.019531 17.023438 10.019531 C 17.121094 10.019531 17.207031 10.078125 17.214844 10.148438 C 17.214844 10.183594 17.203125 10.214844 17.179688 10.234375 L 17.722656 9.992188 C 16.785156 9.0625 15.511719 8.476562 14.101562 8.296875 C 14.175781 8.328125 14.21875 8.386719 14.207031 8.449219 C 14.1875 8.554688 14.035156 8.636719 13.871094 8.636719 C 13.707031 8.636719 13.59375 8.554688 13.617188 8.449219 C 13.640625 8.363281 13.753906 8.289062 13.890625 8.273438 C 13.6875 8.253906 13.484375 8.242188 13.273438 8.238281 L 12.042969 12.523438 L 17.082031 10.28125 C 16.960938 10.296875 16.863281 10.226562 16.859375 10.148438 " fill-opacity="1" fill-rule="nonzero"/><path fill="#ffffff" d="M 18.050781 9.847656 L 18.9375 9.453125 C 19.039062 9.40625 19.054688 9.269531 18.96875 9.199219 C 17.539062 8.066406 15.695312 7.425781 13.71875 7.359375 C 13.605469 7.355469 13.503906 7.433594 13.472656 7.542969 L 13.332031 8.03125 C 14.699219 8.054688 15.984375 8.402344 17.0625 9.078125 C 17.417969 9.300781 17.75 9.558594 18.050781 9.847656 " fill-opacity="1" fill-rule="nonzero"/><path fill="#ffffff" d="M 19.15625 9.671875 C 19.15625 9.601562 19.085938 9.558594 19.023438 9.585938 L 12.042969 12.695312 C 12.046875 12.726562 12.03125 12.796875 12.078125 12.878906 C 12.074219 12.878906 12.070312 12.882812 12.066406 12.882812 C 12.078125 12.988281 12.28125 13.070312 12.472656 13.023438 C 12.683594 12.96875 12.78125 12.777344 12.894531 12.785156 C 13.0625 12.800781 13.082031 13.222656 12.957031 13.632812 C 12.792969 14.175781 12.421875 14.527344 12.488281 14.621094 C 12.539062 14.6875 12.804688 14.585938 12.992188 14.378906 C 13.449219 13.878906 13 13.160156 13.792969 12.382812 L 14.160156 12.226562 C 14.183594 12.367188 13.964844 12.808594 14.054688 13.21875 C 14.101562 13.433594 14.21875 13.566406 14.265625 13.53125 C 14.332031 13.484375 14.210938 13.136719 14.375 12.574219 C 14.421875 12.414062 14.484375 12.207031 14.613281 12.03125 L 15.242188 11.765625 C 15.359375 11.878906 15.136719 12.160156 15.226562 12.300781 C 15.273438 12.375 15.394531 12.382812 15.445312 12.320312 C 15.546875 12.207031 15.324219 11.957031 15.5 11.652344 L 16.148438 11.375 C 16.195312 11.417969 16.230469 11.476562 16.246094 11.550781 C 16.289062 11.773438 16.117188 11.964844 15.980469 12.464844 C 15.949219 12.589844 15.773438 13.238281 15.964844 13.296875 C 16.046875 13.324219 16.203125 13.238281 16.273438 13.121094 C 16.378906 12.9375 16.203125 12.820312 16.199219 12.402344 C 16.199219 12.308594 16.199219 11.8125 16.496094 11.417969 C 16.636719 11.234375 16.789062 11.144531 16.863281 11.101562 C 17.167969 10.921875 17.222656 11.085938 17.503906 10.929688 C 17.660156 10.84375 17.726562 10.75 17.8125 10.667969 L 18.167969 10.515625 C 18.636719 10.503906 18.386719 11.226562 18.453125 11.210938 C 18.5 11.199219 18.570312 10.796875 18.835938 10.414062 C 18.898438 10.324219 19.0625 10.191406 19.109375 10.070312 C 19.140625 10.027344 19.15625 9.976562 19.15625 9.925781 L 19.15625 9.671875 " fill-opacity="1" fill-rule="nonzero"/></svg>