<svg xmlns="http://www.w3.org/2000/svg" xmlns:xlink="http://www.w3.org/1999/xlink" width="128" zoomAndPan="magnify" viewBox="0 0 96 95.999999" height="128" preserveAspectRatio="xMidYMid meet" version="1.0"><defs><clipPath id="e474a8ca15"><path d="M 22.585938 77 L 73.585938 77 L 73.585938 84 L 22.585938 84 Z M 22.585938 77 " clip-rule="nonzero"/></clipPath><clipPath id="ff751e0f84"><path d="M 24 12.144531 L 72 12.144531 L 72 81 L 24 81 Z M 24 12.144531 " clip-rule="nonzero"/></clipPath></defs><rect x="-9.6" width="115.2" fill="#ffffff" y="-9.6" height="115.199999" fill-opacity="1"/><rect x="-9.6" width="115.2" fill="#083d77" y="-9.6" height="115.199999" fill-opacity="1"/><g clip-path="url(#e474a8ca15)"><path fill="#ffffff" d="M 52.125 77.613281 C 50.417969 80.085938 49.316406 81.597656 49.292969 81.632812 C 48.992188 82.042969 48.511719 82.289062 48 82.289062 C 47.488281 82.289062 47.007812 82.042969 46.707031 81.632812 C 46.683594 81.597656 45.582031 80.085938 43.871094 77.613281 C 31.800781 77.855469 22.585938 79.140625 22.585938 80.6875 C 22.585938 82.40625 33.964844 83.800781 48 83.800781 C 62.035156 83.800781 73.414062 82.40625 73.414062 80.6875 C 73.414062 79.140625 64.199219 77.855469 52.125 77.613281 " fill-opacity="1" fill-rule="nonzero"/></g><g clip-path="url(#ff751e0f84)"><path fill="#ffffff" d="M 48 52.867188 C 38.484375 52.867188 30.769531 45.152344 30.769531 35.636719 C 30.769531 26.121094 38.484375 18.410156 48 18.410156 C 57.515625 18.410156 65.226562 26.121094 65.226562 35.636719 C 65.226562 45.152344 57.515625 52.867188 48 52.867188 Z M 48 12.195312 C 35.054688 12.195312 24.558594 22.691406 24.558594 35.636719 C 24.558594 48.582031 48 80.6875 48 80.6875 C 48 80.6875 71.441406 48.582031 71.441406 35.636719 C 71.441406 22.691406 60.945312 12.195312 48 12.195312 " fill-opacity="1" fill-rule="nonzero"/></g><path fill="#ffffff" d="M 51.085938 30.070312 C 50.433594 30.070312 49.917969 29.714844 49.941406 29.285156 C 49.960938 28.863281 50.484375 28.53125 51.109375 28.53125 C 51.734375 28.53125 52.246094 28.863281 52.253906 29.285156 C 52.261719 29.714844 51.738281 30.070312 51.085938 30.070312 Z M 49.402344 33.667969 C 49.371094 34.242188 48.714844 34.71875 47.933594 34.71875 C 47.152344 34.71875 46.582031 34.242188 46.652344 33.667969 C 46.71875 33.109375 47.375 32.664062 48.117188 32.664062 C 48.859375 32.664062 49.433594 33.109375 49.402344 33.667969 Z M 45.515625 30.199219 C 45.457031 30.546875 44.996094 30.832031 44.484375 30.832031 C 43.972656 30.832031 43.617188 30.546875 43.691406 30.199219 C 43.765625 29.859375 44.226562 29.585938 44.71875 29.585938 C 45.214844 29.585938 45.570312 29.859375 45.515625 30.199219 Z M 44.210938 34.152344 C 44.101562 34.765625 43.34375 35.273438 42.527344 35.273438 C 41.707031 35.273438 41.171875 34.765625 41.324219 34.152344 C 41.472656 33.558594 42.222656 33.089844 42.996094 33.089844 C 43.773438 33.089844 44.320312 33.558594 44.210938 34.152344 Z M 41.90625 39.050781 C 41.835938 39.371094 41.472656 39.636719 41.089844 39.636719 C 40.710938 39.636719 40.464844 39.371094 40.542969 39.050781 C 40.617188 38.738281 40.980469 38.484375 41.351562 38.484375 C 41.722656 38.484375 41.972656 38.738281 41.90625 39.050781 Z M 54.378906 33.035156 C 54.363281 32.789062 54.617188 32.59375 54.953125 32.59375 C 55.285156 32.59375 55.574219 32.789062 55.597656 33.035156 C 55.609375 33.148438 55.5625 33.25 55.476562 33.332031 L 57.347656 32.5 C 54.132812 29.308594 49.753906 27.289062 44.914062 26.675781 C 45.171875 26.785156 45.320312 26.980469 45.277344 27.203125 C 45.214844 27.554688 44.699219 27.847656 44.128906 27.847656 C 43.5625 27.847656 43.171875 27.554688 43.261719 27.203125 C 43.335938 26.902344 43.730469 26.65625 44.191406 26.59375 C 43.503906 26.527344 42.796875 26.488281 42.074219 26.472656 L 37.855469 41.183594 L 55.140625 33.480469 C 54.738281 33.539062 54.398438 33.296875 54.378906 33.035156 " fill-opacity="1" fill-rule="nonzero"/><path fill="#ffffff" d="M 58.476562 31.996094 L 61.511719 30.644531 C 61.859375 30.488281 61.921875 30.015625 61.621094 29.777344 C 56.714844 25.886719 50.394531 23.6875 43.605469 23.464844 C 43.214844 23.453125 42.867188 23.707031 42.757812 24.085938 L 42.277344 25.765625 C 46.972656 25.851562 51.382812 27.039062 55.078125 29.359375 C 56.304688 30.125 57.441406 31.007812 58.476562 31.996094 " fill-opacity="1" fill-rule="nonzero"/><path fill="#ffffff" d="M 62.269531 31.398438 C 62.269531 31.160156 62.023438 31 61.804688 31.097656 L 37.855469 41.769531 C 37.863281 41.871094 37.8125 42.121094 37.980469 42.398438 C 37.964844 42.40625 37.949219 42.410156 37.933594 42.417969 C 37.976562 42.777344 38.671875 43.058594 39.328125 42.890625 C 40.050781 42.707031 40.394531 42.050781 40.785156 42.078125 C 41.351562 42.125 41.421875 43.585938 40.996094 44.984375 C 40.433594 46.84375 39.160156 48.0625 39.390625 48.375 C 39.554688 48.601562 40.472656 48.257812 41.117188 47.546875 C 42.683594 45.832031 41.144531 43.367188 43.859375 40.695312 L 45.121094 40.15625 C 45.199219 40.648438 44.449219 42.15625 44.761719 43.566406 C 44.921875 44.296875 45.320312 44.757812 45.484375 44.640625 C 45.710938 44.472656 45.289062 43.289062 45.859375 41.351562 C 46.019531 40.804688 46.230469 40.09375 46.671875 39.496094 L 48.832031 38.574219 C 49.238281 38.960938 48.476562 39.929688 48.777344 40.414062 C 48.941406 40.675781 49.355469 40.695312 49.539062 40.488281 C 49.875 40.101562 49.113281 39.242188 49.71875 38.195312 L 51.945312 37.246094 C 52.109375 37.382812 52.226562 37.589844 52.277344 37.835938 C 52.433594 38.605469 51.832031 39.265625 51.375 40.972656 C 51.257812 41.414062 50.660156 43.632812 51.3125 43.839844 C 51.597656 43.929688 52.132812 43.628906 52.371094 43.226562 C 52.734375 42.601562 52.125 42.203125 52.125 40.765625 C 52.125 40.449219 52.125 38.738281 53.140625 37.390625 C 53.617188 36.757812 54.136719 36.453125 54.394531 36.300781 C 55.445312 35.683594 55.632812 36.25 56.597656 35.714844 C 57.132812 35.421875 57.359375 35.089844 57.652344 34.808594 L 58.871094 34.289062 C 60.488281 34.25 59.632812 36.730469 59.855469 36.675781 C 60.019531 36.632812 60.257812 35.253906 61.167969 33.941406 C 61.378906 33.636719 61.9375 33.175781 62.113281 32.761719 C 62.210938 32.617188 62.269531 32.445312 62.269531 32.265625 L 62.269531 31.398438 " fill-opacity="1" fill-rule="nonzero"/></svg>