<svg xmlns="http://www.w3.org/2000/svg" xmlns:xlink="http://www.w3.org/1999/xlink" width="128" zoomAndPan="magnify" viewBox="0 0 96 95.999999" height="128" preserveAspectRatio="xMidYMid meet" version="1.0"><defs><clipPath id="5372aef057"><path d="M 31.730469 22.496094 L 63.144531 22.496094 L 63.144531 53.910156 L 31.730469 53.910156 Z M 31.730469 22.496094 " clip-rule="nonzero"/></clipPath><clipPath id="f13d0ce3ec"><path d="M 47.4375 22.496094 C 38.761719 22.496094 31.730469 29.53125 31.730469 38.203125 C 31.730469 46.878906 38.761719 53.910156 47.4375 53.910156 C 56.113281 53.910156 63.144531 46.878906 63.144531 38.203125 C 63.144531 29.53125 56.113281 22.496094 47.4375 22.496094 Z M 47.4375 22.496094 " clip-rule="nonzero"/></clipPath><clipPath id="94539104ac"><path d="M 26.839844 72 L 69.308594 72 L 69.308594 78 L 26.839844 78 Z M 26.839844 72 " clip-rule="nonzero"/></clipPath><clipPath id="1422aeb16d"><path d="M 28 18.144531 L 68 18.144531 L 68 76 L 28 76 Z M 28 18.144531 " clip-rule="nonzero"/></clipPath></defs><g clip-path="url(#5372aef057)"><g clip-path="url(#f13d0ce3ec)"><path fill="#3b70aa" d="M 31.730469 22.496094 L 63.144531 22.496094 L 63.144531 53.910156 L 31.730469 53.910156 Z M 31.730469 22.496094 " fill-opacity="1" fill-rule="nonzero"/></g></g><g clip-path="url(#94539104ac)"><path fill="#ffffff" d="M 51.4375 72.660156 C 50.015625 74.71875 49.097656 75.976562 49.078125 76.003906 C 48.824219 76.347656 48.425781 76.550781 48 76.550781 C 47.574219 76.550781 47.175781 76.347656 46.921875 76.003906 C 46.902344 75.976562 45.984375 74.71875 44.5625 72.660156 C 34.511719 72.863281 26.839844 73.929688 26.839844 75.21875 C 26.839844 76.652344 36.3125 77.8125 48 77.8125 C 59.6875 77.8125 69.160156 76.652344 69.160156 75.21875 C 69.160156 73.929688 61.488281 72.863281 51.4375 72.660156 " fill-opacity="1" fill-rule="nonzero"/></g><g clip-path="url(#1422aeb16d)"><path fill="#ffffff" d="M 48 52.050781 C 40.078125 52.050781 33.652344 45.628906 33.652344 37.707031 C 33.652344 29.78125 40.078125 23.359375 48 23.359375 C 55.921875 23.359375 62.347656 29.78125 62.347656 37.707031 C 62.347656 45.628906 55.921875 52.050781 48 52.050781 Z M 48 18.1875 C 37.21875 18.1875 28.480469 26.925781 28.480469 37.707031 C 28.480469 48.484375 48 75.21875 48 75.21875 C 48 75.21875 67.519531 48.484375 67.519531 37.707031 C 67.519531 26.925781 58.78125 18.1875 48 18.1875 " fill-opacity="1" fill-rule="nonzero"/></g><path fill="#ffffff" d="M 50.570312 33.070312 C 50.027344 33.070312 49.597656 32.773438 49.617188 32.414062 C 49.632812 32.066406 50.066406 31.789062 50.589844 31.789062 C 51.109375 31.789062 51.535156 32.066406 51.542969 32.414062 C 51.550781 32.773438 51.113281 33.070312 50.570312 33.070312 Z M 49.167969 36.0625 C 49.144531 36.542969 48.59375 36.941406 47.945312 36.941406 C 47.296875 36.941406 46.816406 36.542969 46.875 36.0625 C 46.933594 35.597656 47.480469 35.230469 48.097656 35.230469 C 48.714844 35.230469 49.195312 35.597656 49.167969 36.0625 Z M 45.929688 33.175781 C 45.882812 33.464844 45.5 33.703125 45.074219 33.703125 C 44.644531 33.703125 44.351562 33.464844 44.414062 33.175781 C 44.472656 32.894531 44.855469 32.667969 45.269531 32.667969 C 45.679688 32.667969 45.976562 32.894531 45.929688 33.175781 Z M 44.84375 36.46875 C 44.753906 36.976562 44.125 37.402344 43.441406 37.402344 C 42.761719 37.402344 42.3125 36.976562 42.441406 36.46875 C 42.566406 35.976562 43.1875 35.585938 43.835938 35.585938 C 44.480469 35.585938 44.933594 35.976562 44.84375 36.46875 Z M 42.925781 40.550781 C 42.867188 40.816406 42.5625 41.035156 42.246094 41.035156 C 41.929688 41.035156 41.726562 40.816406 41.789062 40.550781 C 41.851562 40.285156 42.15625 40.074219 42.464844 40.074219 C 42.773438 40.074219 42.980469 40.285156 42.925781 40.550781 Z M 53.3125 35.539062 C 53.296875 35.335938 53.511719 35.171875 53.789062 35.171875 C 54.066406 35.171875 54.308594 35.335938 54.328125 35.539062 C 54.335938 35.632812 54.296875 35.71875 54.226562 35.785156 L 55.785156 35.089844 C 53.105469 32.433594 49.460938 30.753906 45.429688 30.246094 C 45.644531 30.335938 45.769531 30.496094 45.734375 30.683594 C 45.679688 30.976562 45.25 31.21875 44.777344 31.21875 C 44.304688 31.21875 43.980469 30.976562 44.054688 30.683594 C 44.113281 30.429688 44.445312 30.226562 44.828125 30.175781 C 44.253906 30.121094 43.667969 30.085938 43.066406 30.074219 L 39.550781 42.324219 L 53.949219 35.910156 C 53.609375 35.957031 53.328125 35.757812 53.3125 35.539062 " fill-opacity="1" fill-rule="nonzero"/><path fill="#ffffff" d="M 56.722656 34.671875 L 59.25 33.546875 C 59.542969 33.417969 59.59375 33.023438 59.34375 32.824219 C 55.257812 29.585938 49.996094 27.757812 44.34375 27.570312 C 44.015625 27.558594 43.726562 27.773438 43.636719 28.085938 L 43.234375 29.484375 C 47.144531 29.554688 50.816406 30.546875 53.894531 32.476562 C 54.914062 33.117188 55.863281 33.851562 56.722656 34.671875 " fill-opacity="1" fill-rule="nonzero"/><path fill="#ffffff" d="M 59.882812 34.175781 C 59.882812 33.976562 59.679688 33.84375 59.496094 33.925781 L 39.550781 42.808594 C 39.558594 42.898438 39.515625 43.105469 39.65625 43.335938 C 39.644531 43.339844 39.632812 43.347656 39.617188 43.351562 C 39.652344 43.648438 40.234375 43.886719 40.777344 43.746094 C 41.378906 43.589844 41.667969 43.042969 41.992188 43.070312 C 42.464844 43.109375 42.523438 44.324219 42.167969 45.492188 C 41.699219 47.039062 40.636719 48.050781 40.828125 48.3125 C 40.96875 48.5 41.730469 48.214844 42.269531 47.625 C 43.570312 46.195312 42.289062 44.144531 44.550781 41.917969 L 45.605469 41.46875 C 45.667969 41.878906 45.042969 43.136719 45.304688 44.308594 C 45.4375 44.917969 45.769531 45.300781 45.90625 45.203125 C 46.09375 45.0625 45.742188 44.078125 46.214844 42.464844 C 46.351562 42.007812 46.527344 41.414062 46.894531 40.917969 L 48.691406 40.152344 C 49.03125 40.472656 48.398438 41.277344 48.648438 41.683594 C 48.785156 41.902344 49.128906 41.914062 49.28125 41.742188 C 49.5625 41.421875 48.925781 40.707031 49.429688 39.835938 L 51.285156 39.042969 C 51.421875 39.160156 51.519531 39.332031 51.5625 39.535156 C 51.691406 40.175781 51.191406 40.726562 50.808594 42.148438 C 50.710938 42.515625 50.214844 44.363281 50.757812 44.535156 C 50.996094 44.609375 51.441406 44.363281 51.636719 44.023438 C 51.945312 43.503906 51.4375 43.171875 51.433594 41.976562 C 51.433594 41.710938 51.433594 40.289062 52.28125 39.164062 C 52.679688 38.640625 53.109375 38.386719 53.324219 38.257812 C 54.199219 37.742188 54.355469 38.214844 55.160156 37.769531 C 55.605469 37.523438 55.792969 37.246094 56.035156 37.015625 L 57.050781 36.582031 C 58.398438 36.550781 57.6875 38.617188 57.871094 38.570312 C 58.007812 38.535156 58.207031 37.386719 58.964844 36.292969 C 59.140625 36.039062 59.605469 35.65625 59.75 35.3125 C 59.832031 35.191406 59.882812 35.046875 59.882812 34.898438 L 59.882812 34.175781 " fill-opacity="1" fill-rule="nonzero"/></svg>